<?xml version="1.0" encoding="UTF-8" standalone="no"?>
<!-- Created with Inkscape (http://www.inkscape.org/) -->

<svg
   width="64.047615mm"
   height="14.99165mm"
   viewBox="0 0 64.047615 14.99165"
   version="1.1"
   id="svg1"
   sodipodi:docname="logo-text.svg"
   inkscape:version="1.4.2 (ebf0e940d0, 2025-05-08)"
   xmlns:inkscape="http://www.inkscape.org/namespaces/inkscape"
   xmlns:sodipodi="http://sodipodi.sourceforge.net/DTD/sodipodi-0.dtd"
   xmlns="http://www.w3.org/2000/svg"
   xmlns:svg="http://www.w3.org/2000/svg">
  <sodipodi:namedview
     id="namedview1"
     pagecolor="#ffffff"
     bordercolor="#000000"
     borderopacity="0.25"
     inkscape:showpageshadow="2"
     inkscape:pageopacity="0.0"
     inkscape:pagecheckerboard="0"
     inkscape:deskcolor="#d1d1d1"
     inkscape:document-units="mm"
     inkscape:zoom="1.6932469"
     inkscape:cx="93.31185"
     inkscape:cy="-39.86424"
     inkscape:window-width="1920"
     inkscape:window-height="946"
     inkscape:window-x="0"
     inkscape:window-y="0"
     inkscape:window-maximized="0"
     inkscape:current-layer="layer1" />
  <defs
     id="defs1" />
  <g
     inkscape:label="Layer 1"
     inkscape:groupmode="layer"
     id="layer1"
     transform="translate(-13.823366,-120.52034)">
    <path
       style="font-weight:bold;font-size:22.5778px;line-height:0;font-family:'Source Sans 3';-inkscape-font-specification:'Source Sans 3, Bold';letter-spacing:0.529167px;word-spacing:0.0211667px;stroke-width:0"
       d="m 17.864801,135.24107 h 3.341514 v -11.92108 h 4.041426 v -2.79964 H 13.823374 v 2.79964 h 4.041427 z m 13.037258,0.27094 c 2.822225,0 5.44125,-2.14489 5.44125,-5.87023 0,-3.72534 -2.619025,-5.87023 -5.44125,-5.87023 -2.844803,0 -5.463828,2.14489 -5.463828,5.87023 0,3.72534 2.619025,5.87023 5.463828,5.87023 z m 0,-2.68676 c -1.377246,0 -2.05458,-1.24178 -2.05458,-3.18347 0,-1.94169 0.677334,-3.18347 2.05458,-3.18347 1.354668,0 2.05458,1.24178 2.05458,3.18347 0,1.94169 -0.699912,3.18347 -2.05458,3.18347 z m 8.250781,2.41582 h 3.318936 v -7.56356 c 0.699912,-0.72249 1.354669,-1.08373 1.896536,-1.08373 0.948267,0 1.377246,0.49671 1.377246,2.12231 v 6.52498 h 3.318936 v -7.56356 c 0.72249,-0.72249 1.354668,-1.08373 1.919113,-1.08373 0.948268,0 1.377246,0.49671 1.377246,2.12231 v 6.52498 h 3.318937 v -6.95396 c 0,-2.79965 -1.083735,-4.51556 -3.499559,-4.51556 -1.490135,0 -2.528714,0.85796 -3.522137,1.87396 -0.564445,-1.19663 -1.512713,-1.87396 -3.093159,-1.87396 -1.467557,0 -2.46098,0.79022 -3.38667,1.71591 h -0.09031 l -0.225778,-1.44498 H 39.15284 Z m 22.700578,0.27094 c 1.264357,0 2.280358,-0.58703 3.251203,-1.4224 h 0.09031 l 0.225778,1.15146 h 2.709337 v -6.38951 c 0,-3.45441 -1.580446,-5.08001 -4.447827,-5.08001 -1.761069,0 -3.364092,0.58702 -4.786494,1.46756 l 1.174046,2.16747 c 1.106312,-0.63218 2.032002,-0.97085 2.980269,-0.97085 1.196624,0 1.693335,0.6096 1.761069,1.58045 -4.425249,0.45155 -6.299207,1.71591 -6.299207,4.10916 0,1.89653 1.286935,3.38667 3.341515,3.38667 z m 1.106312,-2.59645 c -0.767645,0 -1.264357,-0.33867 -1.264357,-1.03858 0,-0.85796 0.767646,-1.46756 3.115737,-1.78364 v 1.89653 c -0.564445,0.58702 -1.106312,0.92569 -1.85138,0.92569 z m 12.405105,2.57387 c 1.061157,0 1.919113,-0.2032 2.506136,-0.45156 l -0.541867,-2.32551 c -0.31609,0.13547 -0.699912,0.18062 -1.061157,0.18062 -0.880534,0 -1.444979,-0.51929 -1.444979,-1.78364 v -4.47041 h 2.686758 v -2.59645 h -2.686758 v -3.43182 h -2.754492 l -0.383823,3.43182 -1.715912,0.13547 v 2.46098 h 1.53529 v 4.51556 c 0,2.59645 1.083735,4.33494 3.860804,4.33494 z"
       id="text1"
       aria-label="Tomat" />
  </g>
</svg>
