<?xml version="1.0" encoding="UTF-8" standalone="no"?>
<!-- Created with Inkscape (http://www.inkscape.org/) -->

<svg
   version="1.1"
   id="svg1"
   width="256"
   height="256"
   viewBox="0 0 256 256"
   sodipodi:docname="logo.svg"
   inkscape:version="1.4.2 (ebf0e940d0, 2025-05-08)"
   xmlns:inkscape="http://www.inkscape.org/namespaces/inkscape"
   xmlns:sodipodi="http://sodipodi.sourceforge.net/DTD/sodipodi-0.dtd"
   xmlns="http://www.w3.org/2000/svg"
   xmlns:svg="http://www.w3.org/2000/svg">
  <defs
     id="defs1" />
  <sodipodi:namedview
     id="namedview1"
     pagecolor="#ffffff"
     bordercolor="#000000"
     borderopacity="0.25"
     inkscape:showpageshadow="2"
     inkscape:pageopacity="0.0"
     inkscape:pagecheckerboard="0"
     inkscape:deskcolor="#d1d1d1"
     inkscape:zoom="1.7427312"
     inkscape:cx="120.50051"
     inkscape:cy="181.03767"
     inkscape:window-width="1920"
     inkscape:window-height="1092"
     inkscape:window-x="0"
     inkscape:window-y="0"
     inkscape:window-maximized="0"
     inkscape:current-layer="g1" />
  <g
     inkscape:groupmode="layer"
     inkscape:label="Image"
     id="g1"
     transform="translate(-196.79122,-129.0839)">
    <g
       id="g3267"
       transform="matrix(0.30939151,0,0,0.30939151,164.2973,110.4991)">
      <path
         style="fill:#f8c00d"
         d="m 315.40412,826.60764 c -5.20209,-2.42228 -8.51546,-6.42115 -9.78157,-11.80528 -0.99538,-4.2328 1.67142,-10.53749 14.99636,-35.45351 14.73443,-27.55161 14.32856,-23.38236 3.15424,-32.40154 C 271.08093,704.41758 236.67344,642.90412 225.91654,572 l -2.1998,-14.5 -0.0782,-25.5 c -0.24121,-78.65534 26.44332,-145.93191 77.57721,-195.58632 l 11.99471,-11.64766 -1.95682,-1.95683 -1.95683,-1.95682 -14.5435,11.46481 c -7.99892,6.30565 -22.90545,18.50754 -33.12562,27.11532 -10.22017,8.60778 -20.18383,16.31975 -22.14147,17.1377 l -3.55935,1.4872 -3.90982,-1.05281 C 225.80824,375.33273 219.53473,364.80035 214.62124,347.79938 184.67892,244.197 315.4941,162.57351 392.92142,236.54714 c 15.92808,15.2176 15.57677,20.74352 -1.92142,30.22288 -17.37053,9.41021 -51.56705,31.00723 -61.95071,39.12537 l -2.45071,1.916 1.35875,1.6372 c 1.81437,2.18618 1.83395,2.1776 15.14201,-6.63383 25.03049,-16.57301 58.97386,-30.96717 85.65066,-36.32137 4.391,-0.88131 4.20625,-1.47895 -3.02495,-9.78539 -3.45122,-3.9644 -9.06421,-10.87816 -12.47331,-15.36391 -8.50265,-11.18792 -17.40857,-19.97719 -25.88579,-25.54674 -13.57343,-8.91776 -15.08047,-15.38201 -4.66064,-19.99119 l 4.53426,-2.00572 11.63021,-0.53165 c 25.84531,-1.18145 49.29607,5.39139 68.56813,19.21847 4.22599,3.03201 7.8159,5.51274 7.97759,5.51274 0.16169,0 0.54765,-6.6375 0.85771,-14.75 1.22319,-32.00435 14.88953,-66.75518 34.14173,-86.81575 l 4.08506,-4.25658 3.69464,-0.68974 3.69465,-0.68974 9.80535,3.21426 c 13.09082,4.29126 33.6783,14.47115 38.45439,19.01454 L 574,136.69033 v 3.68799 3.68799 l -9.67457,10.21684 c -20.08015,21.20568 -30.65852,39.69988 -35.90725,62.77675 -2.04963,9.01156 -1.58629,9.32901 4.82071,3.30281 15.99468,-15.04401 37.00909,-25.42856 58.64853,-28.98194 l 9.61258,-1.57846 10.5,0.48808 c 5.775,0.26844 14.73823,1.49319 19.91828,2.72167 l 9.41828,2.23359 2.33172,2.33172 2.33172,2.33172 v 3.44186 3.44187 l -3.35994,2.95006 c -1.84797,1.62254 -6.01047,4.4505 -9.25,6.28436 l -5.89006,3.33429 -19,18.60055 c -10.45,10.2303 -20.71022,20.05515 -22.8005,21.83302 -3.92638,3.33954 -4.10947,5.2049 -0.51089,5.2049 19.27946,0 69.41015,19.62257 97.24498,38.06443 l 13.90427,9.21222 1.58107,-0.99551 c 0.86959,-0.54753 1.71534,-1.6765 1.87945,-2.50882 l 0.29839,-1.5133 -19.29839,-12.99759 C 670.18427,287.11275 654.3,277.13401 645.5,272.08643 636.7,267.03886 628.2625,261.5724 626.75,259.93874 L 624,256.96845 v -4.38514 -4.38514 l 4.61184,-6.13511 c 9.64049,-12.82468 30.17862,-25.46554 49.91164,-30.71972 l 9.97652,-2.65639 16.5,-0.0234 16.5,-0.0234 9.60956,2.5867 c 71.72445,19.30681 105.50996,91.42333 72.64651,155.06686 l -4.02441,7.7937 -2.81617,1.4563 c -6.58387,3.40465 -9.30951,2.23029 -24.41549,-10.51962 -13.17624,-11.12115 -39.94834,-32.87366 -47.87014,-38.89481 l -6.87013,-5.2218 -1.87987,1.70125 c -2.92361,2.64583 -2.26257,4.83676 2.68176,8.88826 37.28212,30.5499 70.22722,96.21694 79.52081,158.50302 l 2.31273,15.5 0.0176,24.5 0.0176,24.5 -1.75274,12.5 C 787.74261,644.98489 749.2679,711.96356 691.52893,753.52969 l -2.81939,2.02968 12.56659,24.47032 c 6.91163,13.45867 13.06088,26.35147 13.66499,28.65064 l 1.09838,4.18033 -1.62326,4.05694 c -2.00329,5.0067 -7.15452,9.66556 -12.1847,11.02005 l -3.79466,1.02179 -3.58087,-0.98873 c -5.59935,-1.54605 -10.59036,-5.70134 -31.40865,-26.14941 l -19.40244,-19.05741 -13.27249,6.03356 c -32.57568,14.80861 -65.14088,22.87015 -101.95019,25.23785 l -17.51216,1.12644 -15.40507,-1.11365 c -40.36914,-2.91833 -80.02442,-13.02438 -109.7476,-27.96891 l -8.30717,-4.17676 -21.3206,20.90725 -21.32059,20.90724 -5.3009,2.64155 c -6.48823,3.23322 -8.03838,3.25985 -14.50409,0.24919 z M 843.5,344.05464 c -5.76173,-2.35823 -6.63931,-5.84029 -4.55027,-18.05464 0.82945,-4.84969 1.11572,-12.62393 0.8101,-22 l -0.47263,-14.5 -3.11854,-9.52519 c -4.18953,-12.79642 -11.73967,-25.12065 -22.39189,-36.55068 L 805,234.00649 v -2.58017 c 0,-16.06301 20.23606,-6.85646 35.5108,16.15591 21.3476,32.16153 25.31613,98.90224 5.78886,97.35438 -0.43981,-0.0349 -1.69966,-0.43175 -2.79966,-0.88197 z"
         id="path3273" />
      <path
         style="fill:#f5bc09"
         d="m 315.40412,826.60764 c -5.20209,-2.42228 -8.51546,-6.42115 -9.78157,-11.80528 -0.99538,-4.2328 1.67142,-10.53749 14.99636,-35.45351 14.73443,-27.55161 14.32856,-23.38236 3.15424,-32.40154 C 271.08093,704.41758 236.67344,642.90412 225.91654,572 l -2.1998,-14.5 -0.0782,-25.5 c -0.24121,-78.65534 26.44332,-145.93191 77.57721,-195.58632 l 11.99471,-11.64766 -1.95682,-1.95683 -1.95683,-1.95682 -14.5435,11.46481 c -7.99892,6.30565 -22.90545,18.50754 -33.12562,27.11532 -10.22017,8.60778 -20.18383,16.31975 -22.14147,17.1377 l -3.55935,1.4872 -3.90982,-1.05281 C 225.80824,375.33273 219.53473,364.80035 214.62124,347.79938 184.67892,244.197 315.4941,162.57351 392.92142,236.54714 c 15.92808,15.2176 15.57677,20.74352 -1.92142,30.22288 -17.37053,9.41021 -51.56705,31.00723 -61.95071,39.12537 l -2.45071,1.916 1.35875,1.6372 c 1.81437,2.18618 1.83395,2.1776 15.14201,-6.63383 25.03049,-16.57301 58.97386,-30.96717 85.65066,-36.32137 4.391,-0.88131 4.20625,-1.47895 -3.02495,-9.78539 -3.45122,-3.9644 -9.06421,-10.87816 -12.47331,-15.36391 -8.50265,-11.18792 -17.40857,-19.97719 -25.88579,-25.54674 -13.57343,-8.91776 -15.08047,-15.38201 -4.66064,-19.99119 l 4.53426,-2.00572 11.63021,-0.53165 c 25.84531,-1.18145 49.29607,5.39139 68.56813,19.21847 4.22599,3.03201 7.8159,5.51274 7.97759,5.51274 0.16169,0 0.54765,-6.6375 0.85771,-14.75 1.22319,-32.00435 14.88953,-66.75518 34.14173,-86.81575 l 4.08506,-4.25658 3.69464,-0.68974 3.69465,-0.68974 9.80535,3.21426 c 13.09082,4.29126 33.6783,14.47115 38.45439,19.01454 L 574,136.69033 v 3.68799 3.68799 l -9.67457,10.21684 c -20.08015,21.20568 -30.65852,39.69988 -35.90725,62.77675 -2.04963,9.01156 -1.58629,9.32901 4.82071,3.30281 15.99468,-15.04401 37.00909,-25.42856 58.64853,-28.98194 l 9.61258,-1.57846 10.5,0.48808 c 5.775,0.26844 14.73823,1.49319 19.91828,2.72167 l 9.41828,2.23359 2.33172,2.33172 2.33172,2.33172 v 3.44186 3.44187 l -3.35994,2.95006 c -1.84797,1.62254 -6.01047,4.4505 -9.25,6.28436 l -5.89006,3.33429 -19,18.60055 c -10.45,10.2303 -20.71022,20.05515 -22.8005,21.83302 -3.92638,3.33954 -4.10947,5.2049 -0.51089,5.2049 19.27946,0 69.41015,19.62257 97.24498,38.06443 l 13.90427,9.21222 1.58107,-0.99551 c 0.86959,-0.54753 1.71534,-1.6765 1.87945,-2.50882 l 0.29839,-1.5133 -19.29839,-12.99759 C 670.18427,287.11275 654.3,277.13401 645.5,272.08643 636.7,267.03886 628.2625,261.5724 626.75,259.93874 L 624,256.96845 v -4.38514 -4.38514 l 4.61184,-6.13511 c 9.64049,-12.82468 30.17862,-25.46554 49.91164,-30.71972 l 9.97652,-2.65639 16.5,-0.0234 16.5,-0.0234 9.60956,2.5867 c 71.72445,19.30681 105.50996,91.42333 72.64651,155.06686 l -4.02441,7.7937 -2.81617,1.4563 c -6.58387,3.40465 -9.30951,2.23029 -24.41549,-10.51962 -13.17624,-11.12115 -39.94834,-32.87366 -47.87014,-38.89481 l -6.87013,-5.2218 -1.87987,1.70125 c -2.92361,2.64583 -2.26257,4.83676 2.68176,8.88826 37.28212,30.5499 70.22722,96.21694 79.52081,158.50302 l 2.31273,15.5 0.0176,24.5 0.0176,24.5 -1.75274,12.5 C 787.74261,644.98489 749.2679,711.96356 691.52893,753.52969 l -2.81939,2.02968 12.56659,24.47032 c 6.91163,13.45867 13.06088,26.35147 13.66499,28.65064 l 1.09838,4.18033 -1.62326,4.05694 c -2.00329,5.0067 -7.15452,9.66556 -12.1847,11.02005 l -3.79466,1.02179 -3.58087,-0.98873 c -5.59935,-1.54605 -10.59036,-5.70134 -31.40865,-26.14941 l -19.40244,-19.05741 -13.27249,6.03356 c -32.57568,14.80861 -65.14088,22.87015 -101.95019,25.23785 l -17.51216,1.12644 -15.40507,-1.11365 c -40.36914,-2.91833 -80.02442,-13.02438 -109.7476,-27.96891 l -8.30717,-4.17676 -21.3206,20.90725 -21.32059,20.90724 -5.3009,2.64155 c -6.48823,3.23322 -8.03838,3.25985 -14.50409,0.24919 z m 142.97772,-194.07563 -0.29443,-69.468 1.16445,-0.71967 c 0.64045,-0.39582 51.88325,-0.74772 113.87291,-0.782 61.98965,-0.0343 112.95983,-0.31369 113.26707,-0.6209 0.30724,-0.30721 0.84527,-3.68221 1.19564,-7.5 l 0.63703,-6.94144 -9.86226,-0.31595 -9.86225,-0.31594 -2.33353,-1.51184 c -1.28343,-0.83151 -3.00136,-3.11019 -3.8176,-5.06373 l -1.48408,-3.5519 1.20297,-2.90422 c 0.66163,-1.59731 2.32773,-3.78896 3.70246,-4.87031 L 668.26972,526 h 10.00891 10.00892 l -0.65879,-7.75 c -0.36234,-4.2625 -0.90023,-8.65 -1.19533,-9.75 l -0.53653,-2 -63.19845,-0.30446 -63.19845,-0.30446 -11.75,11.41799 -11.75,11.418 -0.01,5.88646 -0.01,5.88647 -2.35416,5.05561 c -10.863,23.32946 -45.32462,16.1138 -45.63661,-9.55561 l -0.0547,-4.5 -4.21727,-4.06881 c -4.19666,-4.04893 -25.77553,-24.01135 -35.11672,-32.48615 -2.6947,-2.44477 -8.4322,-7.82824 -12.75,-11.96327 L 428,475.46353 v -3.78142 C 428,464.48193 432.21495,460 438.98623,460 h 2.89213 l 4.81082,4.09166 c 2.64595,2.25041 6.09634,5.42739 7.66754,7.05995 4.11031,4.27086 3.93135,6.38482 4.16214,-49.16303 l 0.21206,-51.03795 -2.11546,0.63912 c -10.37972,3.13589 -28.26452,11.87977 -42.36546,20.71246 l -8.25,5.16771 v 53.79727 53.79726 l -1.96803,0.71777 C 402.94955,506.177 387.69553,506.5 370.13415,506.5 h -31.92977 l -1.10219,8.56772 c -0.6062,4.71225 -1.10219,9.09975 -1.10219,9.75 V 526 h 9.95295 C 359.2194,526 364,528.64897 364,536 c 0,7.39205 -5.5816,10.5 -18.85707,10.5 h -9.35708 l 0.64028,5.45822 c 0.35216,3.00202 0.87114,6.37702 1.15329,7.5 l 0.51301,2.04178 32.70378,-0.0246 c 18.09143,-0.0136 33.26917,0.38192 33.96917,0.88521 l 1.26538,0.90979 -0.0476,55.99926 c -0.0262,30.79959 0.0794,56.11122 0.23462,56.24806 7.5807,6.68347 45.26454,25.88753 51.87033,26.43364 0.32347,0.0267 0.45564,-31.21198 0.29371,-69.41937 z M 339.01531,558.25 c 0.009,-0.99868 0.33573,-1.32068 0.76164,-0.75 0.41047,0.55 1.15358,1.3375 1.65135,1.75 0.49777,0.4125 0.15503,0.75 -0.76163,0.75 -0.92647,0 -1.65987,-0.77721 -1.65136,-1.75 z m 345.31802,1.08333 c 0.36667,-0.36666 0.96667,-0.36666 1.33334,0 C 686.03333,559.7 685.73333,560 685,560 c -0.73333,0 -1.03333,-0.3 -0.66667,-0.66667 z M 338,554 c 0,-0.73333 0.3,-1.03333 0.66667,-0.66667 0.36666,0.36667 0.36666,0.96667 0,1.33334 C 338.3,555.03333 338,554.73333 338,554 Z m 1.25,-30.68933 c 0.9625,-0.25152 2.5375,-0.25152 3.5,0 0.9625,0.25153 0.175,0.45733 -1.75,0.45733 -1.925,0 -2.7125,-0.2058 -1.75,-0.45733 z m 9.08333,0.0227 c 0.36667,-0.36666 0.96667,-0.36666 1.33334,0 C 350.03333,523.7 349.73333,524 349,524 c -0.73333,0 -1.03333,-0.3 -0.66667,-0.66667 z M 338,518.5 c 0,-0.275 0.225,-0.5 0.5,-0.5 0.275,0 0.5,0.225 0.5,0.5 0,0.275 -0.225,0.5 -0.5,0.5 -0.275,0 -0.5,-0.225 -0.5,-0.5 z m 1,-9 c 0,-0.825 0.43588,-1.5 0.96862,-1.5 0.53273,0 0.70959,0.675 0.39301,1.5 -0.31659,0.825 -0.75246,1.5 -0.96862,1.5 C 339.17686,511 339,510.325 339,509.5 Z m 176,3.30332 5.5,0.0608 3.25,-2.91799 c 1.7875,-1.60489 3.25,-3.15162 3.25,-3.43717 0,-0.28555 -7.65,-0.44816 -17,-0.36135 -9.35,0.0868 -17,0.28934 -17,0.45008 0,0.16075 2.1083,2.28425 4.6851,4.71889 l 4.68511,4.42663 3.56489,-1.5004 c 1.9607,-0.82522 6.0399,-1.47302 9.0649,-1.43954 z M 239.49292,352.01145 c 0.35034,-0.56686 -0.0511,-0.7345 -0.94098,-0.39301 -1.73242,0.66479 -2.04939,1.38156 -0.61096,1.38156 0.51754,0 1.21592,-0.44485 1.55194,-0.98855 z m 549.17375,-0.67812 C 788.3,350.96667 788,351.26667 788,352 c 0,0.73333 0.3,1.03333 0.66667,0.66667 0.36666,-0.36667 0.36666,-0.96667 0,-1.33334 z m -552,-2 C 236.3,348.96667 236,349.26667 236,350 c 0,0.73333 0.3,1.03333 0.66667,0.66667 0.36666,-0.36667 0.36666,-0.96667 0,-1.33334 z m -1.49822,-4.56488 -1.05655,-1.05655 0.61931,2.36826 c 0.35361,1.3522 0.8069,1.8055 1.05655,1.05655 0.24048,-0.72144 -0.0382,-1.78716 -0.61931,-2.36826 z m 11.95911,0.48155 1.37244,-1.75 -2,1.46703 c -1.1,0.80687 -2.1875,1.59437 -2.41667,1.75 -0.22916,0.15563 0.0532,0.28297 0.62756,0.28297 0.57432,0 1.66182,-0.7875 2.41667,-1.75 z M 781.5,346 c -0.33992,-0.55 -1.15398,-0.99311 -1.80902,-0.98469 -0.71561,0.009 -0.59227,0.40223 0.30902,0.98469 1.92112,1.24153 2.2673,1.24153 1.5,0 z m 10.5,-1.5 c 0,-0.275 -0.225,-0.5 -0.5,-0.5 -0.275,0 -0.5,0.225 -0.5,0.5 0,0.275 0.225,0.5 0.5,0.5 0.275,0 0.5,-0.225 0.5,-0.5 z m -542,-1 c 0,-0.275 -0.225,-0.5 -0.5,-0.5 -0.275,0 -0.5,0.225 -0.5,0.5 0,0.275 0.225,0.5 0.5,0.5 0.275,0 0.5,-0.225 0.5,-0.5 z m 2.5,-2.5 c 0.33992,-0.55 0.39303,-1 0.11803,-1 -0.275,0 -0.77811,0.45 -1.11803,1 -0.33992,0.55 -0.39303,1 -0.11803,1 0.275,0 0.77811,-0.45 1.11803,-1 z m 540.5,0.5 c 0,-0.275 -0.225,-0.5 -0.5,-0.5 -0.275,0 -0.5,0.225 -0.5,0.5 0,0.275 0.225,0.5 0.5,0.5 0.275,0 0.5,-0.225 0.5,-0.5 z m -559.90805,-4.58568 -0.96518,-2.41432 -0.0634,1.66821 c -0.0842,2.21667 1.21026,5.51084 1.64869,4.19555 0.18977,-0.56932 -0.0893,-2.12157 -0.62013,-3.44944 z M 256,338.5 c 0,-0.275 -0.225,-0.5 -0.5,-0.5 -0.275,0 -0.5,0.225 -0.5,0.5 0,0.275 0.225,0.5 0.5,0.5 0.275,0 0.5,-0.225 0.5,-0.5 z m 537.66667,-1.16667 C 793.3,336.96667 793,337.26667 793,338 c 0,0.73333 0.3,1.03333 0.66667,0.66667 0.36666,-0.36667 0.36666,-0.96667 0,-1.33334 z m 0.99561,-4.58333 c -0.27741,-0.6875 -0.50439,-0.125 -0.50439,1.25 0,1.375 0.22698,1.9375 0.50439,1.25 0.27741,-0.6875 0.27741,-1.8125 0,-2.5 z M 231.63647,317.82025 c -0.13779,-16.33621 -1.2992,-17.64426 -1.51816,-1.70982 C 230.014,323.70175 230.82227,334 231.5224,334 c 0.1378,0 0.18913,-7.28089 0.11407,-16.17975 z m 564.05652,9.44878 c -0.25354,-0.97297 -0.47766,-0.41903 -0.49804,1.23097 -0.0204,1.65 0.18706,2.44606 0.46099,1.76903 0.27392,-0.67703 0.29059,-2.02703 0.0371,-3 z M 796.73221,311.75 c -0.21054,-2.3375 -0.3828,-0.425 -0.3828,4.25 0,4.675 0.17226,6.5875 0.3828,4.25 0.21053,-2.3375 0.21053,-6.1625 0,-8.5 z M 751,321.5 c 0,-0.275 -0.225,-0.5 -0.5,-0.5 -0.275,0 -0.5,0.225 -0.5,0.5 0,0.275 0.225,0.5 0.5,0.5 0.275,0 0.5,-0.225 0.5,-0.5 z m -470,-3 c 0,-0.275 -0.225,-0.5 -0.5,-0.5 -0.275,0 -0.5,0.225 -0.5,0.5 0,0.275 0.225,0.5 0.5,0.5 0.275,0 0.5,-0.225 0.5,-0.5 z m 8.57446,-7.25887 C 288.96201,310.62868 284,314.10359 284,315.14495 c 0,0.50321 1.34447,-0.0791 2.9877,-1.29398 1.64324,-1.21489 2.80728,-2.38932 2.58676,-2.60984 z M 743.5,315 c -0.33992,-0.55 -1.15398,-0.99311 -1.80902,-0.98469 -0.71561,0.009 -0.59227,0.40223 0.30902,0.98469 1.92112,1.24153 2.2673,1.24153 1.5,0 z M 292,309.5 c 0,-0.275 -0.225,-0.5 -0.5,-0.5 -0.275,0 -0.5,0.225 -0.5,0.5 0,0.275 0.225,0.5 0.5,0.5 0.275,0 0.5,-0.225 0.5,-0.5 z m 444,0 c 0,-0.275 -0.225,-0.5 -0.5,-0.5 -0.275,0 -0.5,0.225 -0.5,0.5 0,0.275 0.225,0.5 0.5,0.5 0.275,0 0.5,-0.225 0.5,-0.5 z M 296.5,306 c 0.33992,-0.55 0.39303,-1 0.11803,-1 -0.275,0 -0.77811,0.45 -1.11803,1 -0.33992,0.55 -0.39303,1 -0.11803,1 0.275,0 0.77811,-0.45 1.11803,-1 z m 2.5,-1.5 c 0,-0.275 -0.225,-0.5 -0.5,-0.5 -0.275,0 -0.5,0.225 -0.5,0.5 0,0.275 0.225,0.5 0.5,0.5 0.275,0 0.5,-0.225 0.5,-0.5 z m 431,0.10699 c 0,-0.21616 -0.69837,-0.661 -1.55194,-0.98855 -0.88992,-0.34149 -1.29132,-0.17385 -0.94098,0.39301 0.58726,0.95021 2.49292,1.40545 2.49292,0.59554 z m 65.68311,-2.79449 c -0.31922,-0.79773 -0.55618,-0.56078 -0.60416,0.60417 -0.0434,1.05416 0.19293,1.64479 0.52522,1.3125 0.33229,-0.33229 0.36781,-1.1948 0.0789,-1.91667 z M 235.6168,290.0387 c 0.77319,-2.45371 0.99157,-4.02871 0.48529,-3.5 -1.1353,1.18561 -4.13978,11.24521 -4,13.3928 0.0562,0.86268 0.55362,-0.007 1.1055,-1.9315 0.55188,-1.925 1.63603,-5.50758 2.40921,-7.9613 z M 306,298.5 c 0,-0.275 -0.225,-0.5 -0.5,-0.5 -0.275,0 -0.5,0.225 -0.5,0.5 0,0.275 0.225,0.5 0.5,0.5 0.275,0 0.5,-0.225 0.5,-0.5 z m 415,0.059 c 0,-0.24254 -0.51953,-0.76207 -1.15451,-1.15451 -0.7153,-0.44208 -0.88306,-0.27432 -0.44098,0.44098 0.71244,1.15275 1.59549,1.54767 1.59549,0.71353 z m 73.66667,-1.22569 C 794.3,296.96667 794,297.26667 794,298 c 0,0.73333 0.3,1.03333 0.66667,0.66667 0.36666,-0.36667 0.36666,-0.96667 0,-1.33334 z m -1,-4 C 793.3,292.96667 793,293.26667 793,294 c 0,0.73333 0.3,1.03333 0.66667,0.66667 0.36666,-0.36667 0.36666,-0.96667 0,-1.33334 z m -479.12555,-0.39986 c 1.07627,-1.74144 -0.14952,-2.11024 -1.52106,-0.45764 -0.78875,0.95039 -0.86462,1.52417 -0.20152,1.52417 0.58488,0 1.36004,-0.47994 1.72258,-1.06653 z m 478.12555,-2.60014 C 792.3,289.96667 792,290.26667 792,291 c 0,0.73333 0.3,1.03333 0.66667,0.66667 0.36666,-0.36667 0.36666,-0.96667 0,-1.33334 z M 321.5,287.40499 l 4,-3.56526 -4.75,3.24966 c -2.6125,1.78731 -4.75,3.39837 -4.75,3.58013 0,1.04874 1.97793,-0.12526 5.5,-3.26453 z M 710.5,290 c -0.33992,-0.55 -1.15398,-0.99311 -1.80902,-0.98469 -0.71561,0.009 -0.59227,0.40223 0.30902,0.98469 1.92112,1.24153 2.2673,1.24153 1.5,0 z m -3.83333,-2.66667 C 706.3,286.96667 706,287.26667 706,288 c 0,0.73333 0.3,1.03333 0.66667,0.66667 0.36666,-0.36667 0.36666,-0.96667 0,-1.33334 z m 84.50178,-1.56488 -1.05655,-1.05655 0.61931,2.36826 c 0.35361,1.3522 0.8069,1.8055 1.05655,1.05655 0.24048,-0.72144 -0.0382,-1.78716 -0.61931,-2.36826 z M 705,286.5 c 0,-0.275 -0.225,-0.5 -0.5,-0.5 -0.275,0 -0.5,0.225 -0.5,0.5 0,0.275 0.225,0.5 0.5,0.5 0.275,0 0.5,-0.225 0.5,-0.5 z m -466.03063,-5 c 0,-0.55 -0.43621,-0.325 -0.96937,0.5 -0.53316,0.825 -0.96937,1.95 -0.96937,2.5 0,0.55 0.43621,0.325 0.96937,-0.5 0.53316,-0.825 0.96937,-1.95 0.96937,-2.5 z M 327.5,283 c 0.33992,-0.55 0.39303,-1 0.11803,-1 -0.275,0 -0.77811,0.45 -1.11803,1 -0.33992,0.55 -0.39303,1 -0.11803,1 0.275,0 0.77811,-0.45 1.11803,-1 z M 698,281.5 c -0.68469,-0.825 -1.75229,-1.48569 -2.37244,-1.4682 -0.62016,0.0175 -0.25405,0.6925 0.81357,1.5 2.49367,1.88612 3.13966,1.87294 1.55887,-0.0318 z m -456.0318,-5.94113 c -0.0175,-0.58238 -0.6925,-0.18536 -1.5,0.88226 -0.80751,1.06762 -1.45389,2.41762 -1.4364,3 0.0175,0.58238 0.6925,0.18536 1.5,-0.88226 0.80751,-1.06762 1.45389,-2.41762 1.4364,-3 z M 344.5,272.10625 c 2.75,-1.882 4.22908,-3.14629 3.28684,-2.80955 C 345.60439,270.07667 332,279.01758 332,279.67193 c 0,0.56822 5.31723,-2.65006 12.5,-7.56568 z M 786.5,276 c -0.90611,-1.75222 -1.88314,-2.9502 -2.17117,-2.66216 -0.28803,0.28803 0.28399,1.891 1.27117,3.56216 2.33175,3.94733 3.04026,3.23881 0.9,-0.9 z m -98.94113,-1.5318 C 686.49125,273.66069 685.16774,273 684.61774,273 c -0.55,0 -0.12649,0.66069 0.94113,1.4682 1.06762,0.8075 2.39113,1.46819 2.94113,1.46819 0.55,0 0.12649,-0.66069 -0.94113,-1.46819 z M 247.95553,266.5 c 0,-0.55 -0.87999,0.125 -1.95553,1.5 -1.07554,1.375 -1.95553,2.95 -1.95553,3.5 0,0.55 0.87999,-0.125 1.95553,-1.5 1.07554,-1.375 1.95553,-2.95 1.95553,-3.5 z M 784,271.55902 c 0,-0.24254 -0.51953,-0.76207 -1.15451,-1.15451 -0.7153,-0.44208 -0.88306,-0.27432 -0.44098,0.44098 0.71244,1.15275 1.59549,1.54767 1.59549,0.71353 z M 351,267.5 c 0,-0.275 -0.225,-0.5 -0.5,-0.5 -0.275,0 -0.5,0.225 -0.5,0.5 0,0.275 0.225,0.5 0.5,0.5 0.275,0 0.5,-0.225 0.5,-0.5 z m 2.5,-1.5 c 0.33992,-0.55 0.39303,-1 0.11803,-1 -0.275,0 -0.77811,0.45 -1.11803,1 -0.33992,0.55 -0.39303,1 -0.11803,1 0.275,0 0.77811,-0.45 1.11803,-1 z m 321.5,0.5 c 0,-0.275 -0.225,-0.5 -0.5,-0.5 -0.275,0 -0.5,0.225 -0.5,0.5 0,0.275 0.225,0.5 0.5,0.5 0.275,0 0.5,-0.225 0.5,-0.5 z M 250.5,264 c 0.33992,-0.55 0.14148,-1 -0.44098,-1 -0.58246,0 -1.05902,0.45 -1.05902,1 0,0.55 0.19844,1 0.44098,1 0.24254,0 0.7191,-0.45 1.05902,-1 z m 420.5,0.5 c 0,-0.275 -0.225,-0.5 -0.5,-0.5 -0.275,0 -0.5,0.225 -0.5,0.5 0,0.275 0.225,0.5 0.5,0.5 0.275,0 0.5,-0.225 0.5,-0.5 z m 107,-1 c 0,-0.275 -0.225,-0.5 -0.5,-0.5 -0.275,0 -0.5,0.225 -0.5,0.5 0,0.275 0.225,0.5 0.5,0.5 0.275,0 0.5,-0.225 0.5,-0.5 z m -109,-1 c 0,-0.275 -0.225,-0.5 -0.5,-0.5 -0.275,0 -0.5,0.225 -0.5,0.5 0,0.275 0.225,0.5 0.5,0.5 0.275,0 0.5,-0.225 0.5,-0.5 z m -2,-1 c 0,-0.275 -0.225,-0.5 -0.5,-0.5 -0.275,0 -0.5,0.225 -0.5,0.5 0,0.275 0.225,0.5 0.5,0.5 0.275,0 0.5,-0.225 0.5,-0.5 z m 108.66667,-1.16667 c -0.36667,-0.36666 -0.96667,-0.36666 -1.33334,0 C 773.96667,260.7 774.26667,261 775,261 c 0.73333,0 1.03333,-0.3 0.66667,-0.66667 z M 367.56184,257.2285 c -0.3352,-0.3352 -1.38624,0.20383 -2.33565,1.19784 l -1.72619,1.80729 2.33565,-1.19784 c 1.2846,-0.6588 2.06139,-1.47209 1.72619,-1.80729 z m 294.57738,0.73823 c -1.29844,-1.0817 -2.87344,-1.95176 -3.5,-1.93346 -0.62657,0.0183 -0.0769,0.9183 1.22156,2 1.29844,1.0817 2.87344,1.95176 3.5,1.93346 0.62657,-0.0183 0.0769,-0.9183 -1.22156,-2 z M 257,255.88197 c 0,-0.55 -0.45,-0.72189 -1,-0.38197 -0.55,0.33992 -1,1.06803 -1,1.61803 0,0.55 0.45,0.72189 1,0.38197 0.55,-0.33992 1,-1.06803 1,-1.61803 z m 515,0.80512 c 0,-0.1721 -1.44531,-1.6346 -3.21181,-3.25 C 767.0217,251.82169 766.21211,251.4 766.98911,252.5 768.90553,255.21309 772,257.79882 772,256.68709 Z M 259,253.5 c 0,-0.275 -0.225,-0.5 -0.5,-0.5 -0.275,0 -0.5,0.225 -0.5,0.5 0,0.275 0.225,0.5 0.5,0.5 0.275,0 0.5,-0.225 0.5,-0.5 z m 395,0 c 0,-0.275 -0.225,-0.5 -0.5,-0.5 -0.275,0 -0.5,0.225 -0.5,0.5 0,0.275 0.225,0.5 0.5,0.5 0.275,0 0.5,-0.225 0.5,-0.5 z m -3.69216,-3.4308 c -0.30022,-1.14804 -1.07308,-1.71278 -1.90638,-1.39301 -1.73821,0.66701 -1.81355,1.99086 -0.15146,2.66153 2.23357,0.90126 2.57088,0.69333 2.05784,-1.26852 z M 379,250.5 c 0,-0.275 -0.225,-0.5 -0.5,-0.5 -0.275,0 -0.5,0.225 -0.5,0.5 0,0.275 0.225,0.5 0.5,0.5 0.275,0 0.5,-0.225 0.5,-0.5 z m -3.02006,-3.02417 c -0.69572,-0.83829 -1.47088,-1.31823 -1.72258,-1.06653 -0.69349,0.6935 0.71555,2.5907 1.9241,2.5907 0.6631,0 0.58723,-0.57378 -0.20152,-1.52417 z m 280.50708,-3.89693 2.01298,-1.9211 -3.48291,2.11983 c -1.9156,1.16591 -3.67628,2.70541 -3.91262,3.4211 L 650.67476,248.5 652.5744,247 c 1.0448,-0.825 2.80548,-2.36449 3.91262,-3.4211 z M 271.12756,244.25 272.5,242.5 l -2,1.46703 c -1.1,0.80687 -2.1875,1.59437 -2.41667,1.75 -0.22916,0.15563 0.0532,0.28297 0.62756,0.28297 0.57432,0 1.66182,-0.7875 2.41667,-1.75 z m 101.37576,0.75538 c -0.33809,-0.54704 -1.60214,-1.47725 -2.80901,-2.06712 l -2.19431,-1.07249 2.5,2.04488 c 2.79973,2.29004 3.4059,2.55513 2.50332,1.09473 z M 754,242.5 c 0,-0.275 -0.225,-0.5 -0.5,-0.5 -0.275,0 -0.5,0.225 -0.5,0.5 0,0.275 0.225,0.5 0.5,0.5 0.275,0 0.5,-0.225 0.5,-0.5 z m -76.72519,-9.11229 C 684.28653,230.8884 690.87605,229.8194 704,229.05216 l 12.5,-0.73076 -10.5,-0.15315 c -16.92225,-0.24681 -40.0967,5.86117 -45.69072,12.0425 l -1.78565,1.97311 7.26299,-3.64504 c 3.99465,-2.00477 9.16433,-4.32277 11.48819,-5.15111 z M 669,239.5 c 0,-0.275 -0.225,-0.5 -0.5,-0.5 -0.275,0 -0.5,0.225 -0.5,0.5 0,0.275 0.225,0.5 0.5,0.5 0.275,0 0.5,-0.225 0.5,-0.5 z m 80,0.0257 c 0,-0.58624 -5.60138,-3.52815 -6.70034,-3.51909 -0.43981,0.004 0.55034,0.90066 2.20034,1.99341 2.9358,1.9443 4.5,2.47463 4.5,1.52568 z M 281,238.5 c 0,-0.275 -0.225,-0.5 -0.5,-0.5 -0.275,0 -0.5,0.225 -0.5,0.5 0,0.275 0.225,0.5 0.5,0.5 0.275,0 0.5,-0.225 0.5,-0.5 z m 5,-2 c 1.375,-0.78602 2.05,-1.42913 1.5,-1.42913 -0.55,0 -2.125,0.64311 -3.5,1.42913 -1.375,0.78602 -2.05,1.42913 -1.5,1.42913 0.55,0 2.125,-0.64311 3.5,-1.42913 z m 74,0.5 c -1.95837,-1.2656 -3.28218,-1.2656 -2.5,0 0.33992,0.55 1.37898,0.99311 2.30902,0.98469 l 1.69098,-0.0153 z m -4,-1.5 c 0,-0.275 -0.225,-0.5 -0.5,-0.5 -0.275,0 -0.5,0.225 -0.5,0.5 0,0.275 0.225,0.5 0.5,0.5 0.275,0 0.5,-0.225 0.5,-0.5 z M 740,235 c -0.825,-0.53316 -1.95,-0.96937 -2.5,-0.96937 -0.55,0 -0.325,0.43621 0.5,0.96937 0.825,0.53316 1.95,0.96937 2.5,0.96937 0.55,0 0.325,-0.43621 -0.5,-0.96937 z m -387,-0.90945 c -0.825,-0.46674 -2.625,-1.1236 -4,-1.45967 l -2.5,-0.61105 3,1.44498 c 3.20473,1.54359 6.00831,2.04483 3.5,0.62574 z M 293,233.5 c 0,-0.275 -0.225,-0.5 -0.5,-0.5 -0.275,0 -0.5,0.225 -0.5,0.5 0,0.275 0.225,0.5 0.5,0.5 0.275,0 0.5,-0.225 0.5,-0.5 z m 442.66667,-0.16667 c -0.36667,-0.36666 -0.96667,-0.36666 -1.33334,0 C 733.96667,233.7 734.26667,234 735,234 c 0.73333,0 1.03333,-0.3 0.66667,-0.66667 z M 298.5,232 l 2,-0.85943 -2,-0.055 c -1.1,-0.0302 -2.675,0.38124 -3.5,0.9144 l -1.5,0.96937 1.5,-0.055 c 0.825,-0.0302 2.4,-0.44171 3.5,-0.9144 z m 434.16667,0.33333 c -0.36667,-0.36666 -0.96667,-0.36666 -1.33334,0 C 730.96667,232.7 731.26667,233 732,233 c 0.73333,0 1.03333,-0.3 0.66667,-0.66667 z m -388,-1 c -0.36667,-0.36666 -0.96667,-0.36666 -1.33334,0 C 342.96667,231.7 343.26667,232 344,232 c 0.73333,0 1.03333,-0.3 0.66667,-0.66667 z m 383.71539,-0.31564 c -2.29812,-0.92832 -12.56123,-2.34783 -10.82384,-1.49707 1.26203,0.61799 9.31294,2.24089 11.44178,2.30643 0.825,0.0254 0.54693,-0.33881 -0.61794,-0.80936 z M 326,229.60184 l 12.5,0.10184 -4.5,-0.91588 c -5.3101,-1.08076 -26.19213,-0.31356 -30.5,1.12057 l -3,0.99873 6.5,-0.70355 c 3.575,-0.38695 12.125,-0.65772 19,-0.60171 z m 15.72917,0.79399 c -0.33229,-0.33229 -1.1948,-0.36781 -1.91667,-0.0789 -0.79773,0.31922 -0.56078,0.55618 0.60417,0.60416 1.05416,0.0434 1.64479,-0.19293 1.3125,-0.52522 z M 843.5,344.05464 c -5.76173,-2.35823 -6.63931,-5.84029 -4.55027,-18.05464 0.82945,-4.84969 1.11572,-12.62393 0.8101,-22 l -0.47263,-14.5 -3.11854,-9.52519 c -4.18953,-12.79642 -11.73967,-25.12065 -22.39189,-36.55068 L 805,234.00649 v -2.58017 c 0,-16.06301 20.23606,-6.85646 35.5108,16.15591 21.3476,32.16153 25.31613,98.90224 5.78886,97.35438 -0.43981,-0.0349 -1.69966,-0.43175 -2.79966,-0.88197 z"
         id="path3272" />
      <path
         style="fill:#e82f19"
         d="m 315.40412,826.60764 c -5.20209,-2.42228 -8.51546,-6.42115 -9.78157,-11.80528 -0.99538,-4.2328 1.67142,-10.53749 14.99636,-35.45351 14.73443,-27.55161 14.32856,-23.38236 3.15424,-32.40154 C 271.08093,704.41758 236.67344,642.90412 225.91654,572 l -2.1998,-14.5 -0.0782,-25.5 c -0.24121,-78.65534 26.44332,-145.93191 77.57721,-195.58632 l 11.99471,-11.64766 -1.95682,-1.95683 -1.95683,-1.95682 -14.5435,11.46481 c -7.99892,6.30565 -22.90545,18.50754 -33.12562,27.11532 -10.22017,8.60778 -20.18383,16.31975 -22.14147,17.1377 l -3.55935,1.4872 -3.90982,-1.05281 C 225.80824,375.33273 219.53473,364.80035 214.62124,347.79938 184.67892,244.197 315.4941,162.57351 392.92142,236.54714 c 15.92808,15.2176 15.57677,20.74352 -1.92142,30.22288 -17.37053,9.41021 -51.56705,31.00723 -61.95071,39.12537 l -2.45071,1.916 1.35875,1.6372 c 1.81437,2.18618 1.83395,2.1776 15.14201,-6.63383 25.03049,-16.57301 58.97386,-30.96717 85.65066,-36.32137 4.391,-0.88131 4.20625,-1.47895 -3.02495,-9.78539 -3.45122,-3.9644 -9.06421,-10.87816 -12.47331,-15.36391 -8.50265,-11.18792 -17.40857,-19.97719 -25.88579,-25.54674 -13.57343,-8.91776 -15.08047,-15.38201 -4.66064,-19.99119 l 4.53426,-2.00572 11.63021,-0.53165 c 25.84531,-1.18145 49.29607,5.39139 68.56813,19.21847 4.22599,3.03201 7.8159,5.51274 7.97759,5.51274 0.16169,0 0.54765,-6.6375 0.85771,-14.75 1.22319,-32.00435 14.88953,-66.75518 34.14173,-86.81575 l 4.08506,-4.25658 3.69464,-0.68974 3.69465,-0.68974 9.80535,3.21426 c 13.09082,4.29126 33.6783,14.47115 38.45439,19.01454 L 574,136.69033 v 3.68799 3.68799 l -9.67457,10.21684 c -20.08015,21.20568 -30.65852,39.69988 -35.90725,62.77675 -2.04963,9.01156 -1.58629,9.32901 4.82071,3.30281 15.99468,-15.04401 37.00909,-25.42856 58.64853,-28.98194 l 9.61258,-1.57846 10.5,0.48808 c 5.775,0.26844 14.73823,1.49319 19.91828,2.72167 l 9.41828,2.23359 2.33172,2.33172 2.33172,2.33172 v 3.44186 3.44187 l -3.35994,2.95006 c -1.84797,1.62254 -6.01047,4.4505 -9.25,6.28436 l -5.89006,3.33429 -19,18.60055 c -10.45,10.2303 -20.71022,20.05515 -22.8005,21.83302 -3.92638,3.33954 -4.10947,5.2049 -0.51089,5.2049 19.27946,0 69.41015,19.62257 97.24498,38.06443 l 13.90427,9.21222 1.58107,-0.99551 c 0.86959,-0.54753 1.71534,-1.6765 1.87945,-2.50882 l 0.29839,-1.5133 -19.29839,-12.99759 C 670.18427,287.11275 654.3,277.13401 645.5,272.08643 636.7,267.03886 628.2625,261.5724 626.75,259.93874 L 624,256.96845 v -4.38514 -4.38514 l 4.61184,-6.13511 c 9.64049,-12.82468 30.17862,-25.46554 49.91164,-30.71972 l 9.97652,-2.65639 16.5,-0.0234 16.5,-0.0234 9.60956,2.5867 c 71.72445,19.30681 105.50996,91.42333 72.64651,155.06686 l -4.02441,7.7937 -2.81617,1.4563 c -6.58387,3.40465 -9.30951,2.23029 -24.41549,-10.51962 -13.17624,-11.12115 -39.94834,-32.87366 -47.87014,-38.89481 l -6.87013,-5.2218 -1.87987,1.70125 c -2.92361,2.64583 -2.26257,4.83676 2.68176,8.88826 37.28212,30.5499 70.22722,96.21694 79.52081,158.50302 l 2.31273,15.5 0.0176,24.5 0.0176,24.5 -1.75274,12.5 C 787.74261,644.98489 749.2679,711.96356 691.52893,753.52969 l -2.81939,2.02968 12.56659,24.47032 c 6.91163,13.45867 13.06088,26.35147 13.66499,28.65064 l 1.09838,4.18033 -1.62326,4.05694 c -2.00329,5.0067 -7.15452,9.66556 -12.1847,11.02005 l -3.79466,1.02179 -3.58087,-0.98873 c -5.59935,-1.54605 -10.59036,-5.70134 -31.40865,-26.14941 l -19.40244,-19.05741 -13.27249,6.03356 c -32.57568,14.80861 -65.14088,22.87015 -101.95019,25.23785 l -17.51216,1.12644 -15.40507,-1.11365 c -40.36914,-2.91833 -80.02442,-13.02438 -109.7476,-27.96891 l -8.30717,-4.17676 -21.3206,20.90725 -21.32059,20.90724 -5.3009,2.64155 c -6.48823,3.23322 -8.03838,3.25985 -14.50409,0.24919 z M 459.7568,632.75 460.0136,563 h 113.37075 113.37076 l 1.02257,-1.25 c 0.56241,-0.6875 1.34538,-4.7375 1.73993,-9 l 0.71737,-7.75 h -8.96827 c -15.74418,0 -22.66481,-6.139 -16.19413,-14.36514 L 667.14516,528 l 10.17742,-0.0153 c 5.59758,-0.008 10.826,-0.42568 11.61872,-0.92725 l 1.44129,-0.91193 -1.11739,-9.54866 c -0.61456,-5.25177 -1.4022,-10.00951 -1.75031,-10.57276 L 686.88197,505 l -64.19099,0.0242 -64.19098,0.0242 -11.97276,11.31834 -11.97276,11.31833 -0.59379,8.08106 -0.5938,8.08107 -2.69198,4.06786 c -1.48059,2.23732 -4.55091,5.29804 -6.82293,6.80159 l -4.13095,2.73374 -6.69724,0.37842 -6.69724,0.37843 -3.91327,-2.01204 C 494.74584,552.25294 490,544.90137 490,536.96638 c 0,-6.40205 4.42957,-1.83969 -55.95054,-57.62785 l -4.50401,-4.16148 v -4.03215 -4.03216 l 2.40159,-2.55637 L 434.34863,462 h 3.81843 3.81843 l 8.12796,7.48442 c 4.47038,4.11643 8.52364,7.23987 9.00726,6.94098 C 459.60836,476.12402 460,452.51035 460,423.4096 v -52.47237 l -1.32741,-0.50937 C 455.11721,369.06353 425.79052,382.5851 412.5,391.71652 l -7,4.80943 -0.52175,53.98703 c -0.28696,29.69286 -0.62446,54.09353 -0.75,54.22372 -0.12554,0.13018 -15.41575,0.35518 -33.97825,0.5 l -33.75,0.2633 -1.23388,9.91696 -1.23388,9.91696 1.09041,1.31387 1.09041,1.31386 10.5679,-0.12869 10.56791,-0.1287 2.32556,2.70364 c 1.40875,1.63776 2.32557,3.99275 2.32557,5.97355 v 3.26992 l -2.57879,2.42432 -2.5788,2.42431 -11.1712,0.5 -11.17121,0.5 0.29092,5.57962 c 0.16,3.06879 0.64214,6.89379 1.07141,8.5 l 0.7805,2.92038 33.92859,0.5 33.92858,0.5 0.5,56.48686 0.5,56.48686 7,4.82011 c 13.86409,9.54664 40.05127,22.02434 45,21.44166 l 2,-0.23549 z m 49.7037,-117.87025 c 2.17828,-0.54143 5.6278,-0.70273 7.66561,-0.35844 l 3.70511,0.62597 4.08439,-3.69 C 527.16202,509.42778 529,507.14464 529,506.38364 V 505 h -19 -19 l -3.6e-4,1.25 c -2e-4,0.6875 2.3623,3.38159 5.25,5.98687 l 5.25036,4.73687 2,-0.55479 c 1.1,-0.30513 3.78223,-0.99777 5.9605,-1.5392 z M 241.74712,352.65887 C 269.98381,327.52021 326.0662,285.9993 362.5,263.25878 c 10.45,-6.52247 18.97712,-12.28522 18.94916,-12.80612 -0.21667,-4.03637 -22.11066,-16.8463 -35.9985,-21.06234 L 336.5,226.6731 322,226.604 l -14.5,-0.0691 -7.88403,2.26627 c -55.14851,15.85248 -85.21526,70.80929 -65.9275,120.50405 2.97591,7.6674 3.13769,7.73472 8.05865,3.35367 z M 792.26752,348.75 c 1.3641,-3.4375 3.30377,-9.4 4.31037,-13.25 l 1.83019,-7 V 316 303.5 l -1.78793,-7 C 780.42562,233.09611 701.11656,204.82375 650.75,244.49972 c -7.48877,5.89923 -7.4804,5.92148 5.03733,13.40269 36.31566,21.70399 71.72886,47.56338 123.21267,89.97219 10.40238,8.56876 10.21934,8.55669 13.26752,0.8754 z M 843.5,344.05464 c -5.76173,-2.35823 -6.63931,-5.84029 -4.55027,-18.05464 0.82945,-4.84969 1.11572,-12.62393 0.8101,-22 l -0.47263,-14.5 -3.11854,-9.52519 c -4.18953,-12.79642 -11.73967,-25.12065 -22.39189,-36.55068 L 805,234.00649 v -2.58017 c 0,-16.06301 20.23606,-6.85646 35.5108,16.15591 21.3476,32.16153 25.31613,98.90224 5.78886,97.35438 -0.43981,-0.0349 -1.69966,-0.43175 -2.79966,-0.88197 z"
         id="path3271" />
      <path
         style="fill:#5e625e"
         d="m 315.40412,826.60764 c -5.20209,-2.42228 -8.51546,-6.42115 -9.78157,-11.80528 -0.99538,-4.2328 1.67142,-10.53749 14.99636,-35.45351 14.73443,-27.55161 14.32856,-23.38236 3.15424,-32.40154 C 271.08093,704.41758 236.67344,642.90412 225.91654,572 l -2.1998,-14.5 -0.0782,-25.5 c -0.24121,-78.65534 26.44332,-145.93191 77.57721,-195.58632 l 11.99471,-11.64766 -1.95682,-1.95683 -1.95683,-1.95682 -14.5435,11.46481 c -7.99892,6.30565 -22.90545,18.50754 -33.12562,27.11532 -10.22017,8.60778 -20.18383,16.31975 -22.14147,17.1377 l -3.55935,1.4872 -3.90982,-1.05281 C 225.80824,375.33273 219.53473,364.80035 214.62124,347.79938 184.67892,244.197 315.4941,162.57351 392.92142,236.54714 c 15.92808,15.2176 15.57677,20.74352 -1.92142,30.22288 -17.37053,9.41021 -51.56705,31.00723 -61.95071,39.12537 l -2.45071,1.916 1.35875,1.6372 c 1.81437,2.18618 1.83395,2.1776 15.14201,-6.63383 25.03049,-16.57301 58.97386,-30.96717 85.65066,-36.32137 4.391,-0.88131 4.20625,-1.47895 -3.02495,-9.78539 -3.45122,-3.9644 -9.06421,-10.87816 -12.47331,-15.36391 -8.50265,-11.18792 -17.40857,-19.97719 -25.88579,-25.54674 -13.57343,-8.91776 -15.08047,-15.38201 -4.66064,-19.99119 l 4.53426,-2.00572 11.63021,-0.53165 c 25.84531,-1.18145 49.29607,5.39139 68.56813,19.21847 4.22599,3.03201 7.8159,5.51274 7.97759,5.51274 0.16169,0 0.54765,-6.6375 0.85771,-14.75 1.22319,-32.00435 14.88953,-66.75518 34.14173,-86.81575 l 4.08506,-4.25658 3.69464,-0.68974 3.69465,-0.68974 9.80535,3.21426 c 13.09082,4.29126 33.6783,14.47115 38.45439,19.01454 L 574,136.69033 v 3.68799 3.68799 l -9.67457,10.21684 c -20.08015,21.20568 -30.65852,39.69988 -35.90725,62.77675 -2.04963,9.01156 -1.58629,9.32901 4.82071,3.30281 15.99468,-15.04401 37.00909,-25.42856 58.64853,-28.98194 l 9.61258,-1.57846 10.5,0.48808 c 5.775,0.26844 14.73823,1.49319 19.91828,2.72167 l 9.41828,2.23359 2.33172,2.33172 2.33172,2.33172 v 3.44186 3.44187 l -3.35994,2.95006 c -1.84797,1.62254 -6.01047,4.4505 -9.25,6.28436 l -5.89006,3.33429 -19,18.60055 c -10.45,10.2303 -20.71022,20.05515 -22.8005,21.83302 -3.92638,3.33954 -4.10947,5.2049 -0.51089,5.2049 19.27946,0 69.41015,19.62257 97.24498,38.06443 l 13.90427,9.21222 1.58107,-0.99551 c 0.86959,-0.54753 1.71534,-1.6765 1.87945,-2.50882 l 0.29839,-1.5133 -19.29839,-12.99759 C 670.18427,287.11275 654.3,277.13401 645.5,272.08643 636.7,267.03886 628.2625,261.5724 626.75,259.93874 L 624,256.96845 v -4.38514 -4.38514 l 4.61184,-6.13511 c 9.64049,-12.82468 30.17862,-25.46554 49.91164,-30.71972 l 9.97652,-2.65639 16.5,-0.0234 16.5,-0.0234 9.60956,2.5867 c 71.72445,19.30681 105.50996,91.42333 72.64651,155.06686 l -4.02441,7.7937 -2.81617,1.4563 c -6.58387,3.40465 -9.30951,2.23029 -24.41549,-10.51962 -13.17624,-11.12115 -39.94834,-32.87366 -47.87014,-38.89481 l -6.87013,-5.2218 -1.87987,1.70125 c -2.92361,2.64583 -2.26257,4.83676 2.68176,8.88826 37.28212,30.5499 70.22722,96.21694 79.52081,158.50302 l 2.31273,15.5 0.0176,24.5 0.0176,24.5 -1.75274,12.5 C 787.74261,644.98489 749.2679,711.96356 691.52893,753.52969 l -2.81939,2.02968 12.56659,24.47032 c 6.91163,13.45867 13.06088,26.35147 13.66499,28.65064 l 1.09838,4.18033 -1.62326,4.05694 c -2.00329,5.0067 -7.15452,9.66556 -12.1847,11.02005 l -3.79466,1.02179 -3.58087,-0.98873 c -5.59935,-1.54605 -10.59036,-5.70134 -31.40865,-26.14941 l -19.40244,-19.05741 -13.27249,6.03356 c -32.57568,14.80861 -65.14088,22.87015 -101.95019,25.23785 l -17.51216,1.12644 -15.40507,-1.11365 c -40.36914,-2.91833 -80.02442,-13.02438 -109.7476,-27.96891 l -8.30717,-4.17676 -21.3206,20.90725 -21.32059,20.90724 -5.3009,2.64155 c -6.48823,3.23322 -8.03838,3.25985 -14.50409,0.24919 z M 535.14405,795.97025 C 637.36657,785.80572 725.24863,723.46792 762.41408,634.75971 818.65981,500.50978 754.67066,338.86764 628,295.21808 c -16.45244,-5.66936 -16.41405,-5.69394 -7.74152,4.956 15.7459,19.33609 19.43044,30.62229 11.26782,34.51477 l -3.42119,1.63145 -5.80255,-2.58393 C 608.53935,327.60748 598.08308,325.40849 569,322.52664 c -17.53744,-1.7378 -28.53742,-4.19188 -41.29309,-9.21243 l -8.79309,-3.46091 -3.20691,1.93749 c -1.7638,1.06562 -6.35691,3.8772 -10.20691,6.24797 -16.96539,10.447 -30.4742,15.42818 -55.5,20.46484 -20.52457,4.13075 -34.05637,8.24982 -44.74945,13.62171 -9.06669,4.55485 -12.94515,4.89313 -16.21348,1.41415 l -2.31156,-2.46054 0.56686,-3.49314 c 2.65548,-16.36382 27.25441,-45.72707 51.65828,-61.66347 10.40467,-6.79453 -30.85451,4.23964 -53.40423,14.28219 C 295.32643,340.38411 241.37199,427.2284 241.53701,532 l 0.037,23.5 1.7544,11.79909 c 20.96452,140.99499 150.75135,242.69793 291.81562,228.67116 z M 496.59138,728.89806 C 322.96696,714.70288 252.36561,498.97792 385.50576,389.47198 514.6173,283.27952 708.01856,371.44663 708.07895,536.52555 708.11983,648.29383 609.36966,738.11858 496.59138,728.89806 Z M 459.7568,632.75 460.0136,563 h 113.37075 113.37076 l 1.02257,-1.25 c 0.56241,-0.6875 1.34538,-4.7375 1.73993,-9 l 0.71737,-7.75 h -8.96827 c -15.74418,0 -22.66481,-6.139 -16.19413,-14.36514 L 667.14516,528 l 10.17742,-0.0153 c 5.59758,-0.008 10.826,-0.42568 11.61872,-0.92725 l 1.44129,-0.91193 -1.11739,-9.54866 c -0.61456,-5.25177 -1.4022,-10.00951 -1.75031,-10.57276 L 686.88197,505 l -64.19099,0.0242 -64.19098,0.0242 -11.97276,11.31834 -11.97276,11.31833 -0.59379,8.08106 -0.5938,8.08107 -2.69198,4.06786 c -1.48059,2.23732 -4.55091,5.29804 -6.82293,6.80159 l -4.13095,2.73374 -6.69724,0.37842 -6.69724,0.37843 -3.91327,-2.01204 C 494.74584,552.25294 490,544.90137 490,536.96638 c 0,-6.40205 4.42957,-1.83969 -55.95054,-57.62785 l -4.50401,-4.16148 v -4.03215 -4.03216 l 2.40159,-2.55637 L 434.34863,462 h 3.81843 3.81843 l 8.12796,7.48442 c 4.47038,4.11643 8.52364,7.23987 9.00726,6.94098 C 459.60836,476.12402 460,452.51035 460,423.4096 v -52.47237 l -1.32741,-0.50937 C 455.11721,369.06353 425.79052,382.5851 412.5,391.71652 l -7,4.80943 -0.52175,53.98703 c -0.28696,29.69286 -0.62446,54.09353 -0.75,54.22372 -0.12554,0.13018 -15.41575,0.35518 -33.97825,0.5 l -33.75,0.2633 -1.23388,9.91696 -1.23388,9.91696 1.09041,1.31387 1.09041,1.31386 10.5679,-0.12869 10.56791,-0.1287 2.32556,2.70364 c 1.40875,1.63776 2.32557,3.99275 2.32557,5.97355 v 3.26992 l -2.57879,2.42432 -2.5788,2.42431 -11.1712,0.5 -11.17121,0.5 0.29092,5.57962 c 0.16,3.06879 0.64214,6.89379 1.07141,8.5 l 0.7805,2.92038 33.92859,0.5 33.92858,0.5 0.5,56.48686 0.5,56.48686 7,4.82011 c 13.86409,9.54664 40.05127,22.02434 45,21.44166 l 2,-0.23549 z m 49.7037,-117.87025 c 2.17828,-0.54143 5.6278,-0.70273 7.66561,-0.35844 l 3.70511,0.62597 4.08439,-3.69 C 527.16202,509.42778 529,507.14464 529,506.38364 V 505 h -19 -19 l -3.6e-4,1.25 c -2e-4,0.6875 2.3623,3.38159 5.25,5.98687 l 5.25036,4.73687 2,-0.55479 c 1.1,-0.30513 3.78223,-0.99777 5.9605,-1.5392 z M 241.74712,352.65887 C 269.98381,327.52021 326.0662,285.9993 362.5,263.25878 c 10.45,-6.52247 18.97712,-12.28522 18.94916,-12.80612 -0.21667,-4.03637 -22.11066,-16.8463 -35.9985,-21.06234 L 336.5,226.6731 322,226.604 l -14.5,-0.0691 -7.88403,2.26627 c -55.14851,15.85248 -85.21526,70.80929 -65.9275,120.50405 2.97591,7.6674 3.13769,7.73472 8.05865,3.35367 z M 792.26752,348.75 c 1.3641,-3.4375 3.30377,-9.4 4.31037,-13.25 l 1.83019,-7 V 316 303.5 l -1.78793,-7 C 780.42562,233.09611 701.11656,204.82375 650.75,244.49972 c -7.48877,5.89923 -7.4804,5.92148 5.03733,13.40269 36.31566,21.70399 71.72886,47.56338 123.21267,89.97219 10.40238,8.56876 10.21934,8.55669 13.26752,0.8754 z M 843.5,344.05464 c -5.76173,-2.35823 -6.63931,-5.84029 -4.55027,-18.05464 0.82945,-4.84969 1.11572,-12.62393 0.8101,-22 l -0.47263,-14.5 -3.11854,-9.52519 c -4.18953,-12.79642 -11.73967,-25.12065 -22.39189,-36.55068 L 805,234.00649 v -2.58017 c 0,-16.06301 20.23606,-6.85646 35.5108,16.15591 21.3476,32.16153 25.31613,98.90224 5.78886,97.35438 -0.43981,-0.0349 -1.69966,-0.43175 -2.79966,-0.88197 z"
         id="path3270" />
      <path
         style="fill:#005d9d"
         d="m 316.45042,825.64789 c -13.22643,-5.99739 -12.41549,-11.926 6.42984,-47.00675 14.10196,-26.25093 13.95077,-23.83049 2.0677,-33.10196 -122.78528,-95.80021 -134.511,-296.8413 -23.72579,-406.78584 l 13.85177,-13.74666 -1.05989,-1.98042 c -0.58294,-1.08923 -1.92261,-2.44214 -2.97706,-3.00646 l -1.91717,-1.02604 -13.80991,10.81166 C 287.71446,335.75184 272.275,348.33914 261,357.7772 c -21.07635,17.64256 -23.64086,19.15649 -29.29118,17.29172 l -3.2981,-1.08847 -3.4107,-5.62765 c -34.6767,-57.21628 1.42054,-136.37757 70.72263,-155.09481 l 9.77735,-2.64069 17,-0.0419 17,-0.0419 8.5,2.35977 c 21.11229,5.8612 43.54547,20.50385 52.17001,34.05258 4.88103,7.66786 3.5187,10.93409 -6.95687,16.67934 -22.47075,12.32391 -62.64327,37.80159 -66.62761,42.25566 l -1.91447,2.14018 2.33878,2.48952 c 3.06624,3.26386 1.9123,3.68288 16.47955,-5.98409 24.32826,-16.14449 46.59047,-25.99597 76.93377,-34.04475 16.41976,-4.35546 16.12658,-3.95398 8.89466,-12.18022 C 426.02919,254.56064 419.06785,246.1 413.84817,239.5 c -10.63333,-13.44526 -17.1839,-19.7629 -27.12423,-26.15974 -10.08297,-6.48863 -11.53552,-12.28609 -3.98478,-15.90417 l 3.76084,-1.80207 14,-0.42457 14,-0.42456 9.31421,1.61856 c 17.08398,2.96873 32.23495,9.41272 44.96534,19.12457 8.09528,6.17578 9.62208,6.19367 8.95622,0.10495 C 473.83156,179.93204 501.81776,113 520.64955,113 c 6.20282,0 31.15414,10.09113 43.50975,17.59677 l 6.05214,3.67648 1.29091,3.07017 1.29091,3.07016 -0.95324,2.50721 c -0.52429,1.37897 -5.11068,6.79841 -10.192,12.04321 -18.41823,19.0108 -29.46351,38.30106 -34.63847,60.49506 -3.52975,15.13811 -3.0774,15.43119 8.3076,5.38248 17.20598,-15.18647 34.48876,-23.7889 55.07044,-27.41109 20.23182,-3.56062 48.71815,0.22272 53.20196,7.06588 l 1.69415,2.5856 -1.13941,2.50072 c -0.62667,1.3754 -3.89607,4.16947 -7.26533,6.20904 -10.13497,6.13518 -19.88058,14.30873 -29.26468,24.54401 -4.88715,5.33043 -13.34156,13.57229 -18.78759,18.31523 -12.08684,10.52644 -12.17299,10.23385 3.97216,13.49057 34.27455,6.91371 61.3198,18.11264 90.38835,37.42811 14.36816,9.54735 13.65032,9.2967 16.85502,5.88545 l 2.39085,-2.54495 -1.05643,-1.70505 c -1.60735,-2.59421 -39.25905,-27.67263 -54.97489,-36.61677 -18.38814,-10.46498 -19.15799,-11.04592 -20.34772,-15.35477 l -1.01617,-3.68028 2.05253,-4.23996 c 2.65696,-5.48855 15.70953,-17.68297 24.51299,-22.90137 67.1508,-39.80478 157.25718,6.99968 162.84615,84.58809 1.76578,24.51331 -9.11092,60.69755 -19.78786,65.82961 l -2.76617,1.32961 -3.02699,-1.05521 c -1.66484,-0.58037 -9.61872,-6.57869 -17.6753,-13.32961 -46.19046,-38.70478 -53.64183,-43.84911 -57.24965,-39.5244 -2.96726,3.55688 -2.35536,5.15717 4.30644,11.26252 115.23457,105.60912 104.10285,320.68601 -21.42219,413.89996 -3.4803,2.58444 -7.10553,5.33613 -8.05609,6.11486 l -1.72827,1.41589 0.75815,1.77838 c 0.41698,0.97812 6.52479,13.25339 13.5729,27.27839 l 12.81475,25.5 -0.50458,3.7881 c -0.90411,6.78756 -6.09717,11.93362 -13.44362,13.32196 l -3.25895,0.61588 -5.37971,-2.63204 -5.3797,-2.63205 -20.65723,-20.48092 C 654.20399,790.21642 644.4689,781 643.93192,781 c -0.53697,0 -4.45383,1.74399 -8.70412,3.87553 -74.16336,37.1933 -195.24742,35.50555 -254.85733,-3.55236 -1.33809,-0.87675 -2.75634,-1.27062 -3.15168,-0.87528 -42.99994,43.00092 -51.56625,49.37261 -60.76837,45.2 z m 221.33899,-29.6959 C 669.97568,781.6859 768.0452,686.05668 781.64404,558.16529 l 1.55938,-14.66529 -0.52938,-21 C 780.00781,416.73341 716.90853,324.8604 626,294.3815 c -14.34758,-4.81032 -15.06316,-4.51005 -8.02116,3.36577 23.08969,25.82368 23.56312,43.53338 0.91901,34.378 -13.12636,-5.30719 -21.86426,-6.95631 -53.89785,-10.1722 -12.90392,-1.29544 -26.81243,-4.6099 -37.79002,-9.00554 -9.31961,-3.73176 -7.66213,-4.0336 -19.84501,3.61398 -18.63395,11.69713 -31.76425,16.63332 -58.22171,21.88781 -19.37813,3.84853 -33.77894,8.31174 -44.8683,13.90591 -35.05366,17.6833 -9.35178,-36.30878 29.78695,-62.57359 11.80335,-7.92087 10.85364,-8.39807 -7.48655,-3.76178 -217.50137,54.98291 -253.90708,354.92098 -57.16601,470.97724 52.31804,30.86207 113.09091,44.92193 168.38006,38.95489 z M 484.1772,727.36568 C 391.92133,713.13489 324.45902,641.33846 316.8342,549.2717 l -1.17837,-14.22831 1.19977,-13.55175 C 322.31094,459.87225 352.4804,409.74391 404.64557,375.62346 520.0946,300.10999 676.24347,363.83007 704.53465,498 l 2.63577,12.5 0.54325,19.21033 C 711.10667,649.6909 602.60175,745.63308 484.1772,727.36568 Z M 461.24325,634.75 461.5,564.5 l 113.45583,-0.19027 113.45583,-0.19027 0.81681,-2.20804 c 0.44924,-1.21442 0.91912,-5.6288 1.04417,-9.80973 L 690.5,544.5 l -10.88466,-0.55589 -10.88465,-0.55588 -2.36535,-2.74988 C 663.47376,537.27668 663.33679,533.66321 666,531 l 2,-2 h 9.91821 c 5.45502,0 10.63002,-0.27314 11.5,-0.60699 L 691,527.78602 v -3.85216 c 0,-4.84934 -1.96722,-18.26279 -2.89971,-19.77159 l -0.70059,-1.13357 -63.94985,-0.13394 -63.94985,-0.13393 -13.14628,12.66725 -13.14628,12.66726 -0.35372,7.78022 -0.35372,7.78022 -2.77887,3.64324 c -1.52838,2.00378 -4.40372,4.88257 -6.38965,6.39731 l -3.61077,2.75407 -6.61036,0.33782 -6.61035,0.33781 -4.48662,-2.31301 c -2.56775,-1.32377 -5.75571,-4.1395 -7.45392,-6.58359 l -2.96729,-4.27058 -0.41432,-6.50664 -0.41431,-6.50664 -15.13177,-14.33279 C 467.3093,508.72974 454.2,496.5249 446.5,489.49091 427.41878,472.06012 424.56024,463 438.14189,463 h 3.83192 l 9.26309,8.75 9.2631,8.75 0.25847,-55.9082 c 0.14216,-30.74951 0.028,-56.13871 -0.25377,-56.42044 -1.83492,-1.83492 -35.33485,13.79234 -48.5047,22.62677 l -8.5,5.70187 -0.25876,53.25 -0.25877,53.25 h -33.41178 -33.41178 l -0.55577,2.75 c -0.30567,1.5125 -1.06931,6.76737 -1.69697,11.67749 l -1.1412,8.92748 1.80864,1.32252 L 336.38226,529 H 346.69113 357 l 2,2 c 2.68038,2.68038 2.64213,8.1089 -0.0745,10.56738 l -2.07446,1.87736 -11.67554,0.52763 L 333.5,544.5 l 0.29533,6.5 c 0.16243,3.575 0.71172,8.075 1.22065,10 l 0.92531,3.5 H 369.22065 402.5 l 0.5,55.98079 0.5,55.98079 7.5,5.22781 c 12.06408,8.40916 43.07483,23.07283 49.24325,23.28504 0.40878,0.0141 0.85878,-31.58693 1,-70.22443 z M 507.5,516.43666 c 3.21337,-0.9908 6.568,-1.31496 9.38815,-0.90719 l 4.38815,0.63451 5.84461,-5.78363 5.84461,-5.78362 -1.23276,-0.78305 c -1.44785,-0.91968 -30.59216,-0.88623 -39.08136,0.0448 l -5.8486,0.64147 7.00137,6.75 c 7.87673,7.59393 6.98447,7.25603 13.69583,5.18666 z M 252.10363,345.34555 c 50.50486,-41.22659 79.43142,-62.22704 118.14637,-85.77333 7.0125,-4.26497 12.75,-8.28683 12.75,-8.93747 0,-4.25881 -22.8503,-17.7698 -37.71816,-22.3021 L 336.5,225.65561 h -15 -15 l -9,2.71037 C 263.95399,238.46844 238.291,263.92275 229.81559,295.5 l -2.14721,8 -0.0592,14 -0.0592,14 2.30006,8.5 c 5.45411,20.15601 4.41553,19.90653 22.25354,5.34555 z m 540.43595,5.16086 c 3.69456,-8.35404 6.45613,-20.01506 7.10614,-30.00641 l 0.58552,-9 -1.63959,-9.38937 C 792.45468,266.96643 764.80487,237.86795 728,227.82045 l -8.5,-2.32045 -15,0.0267 -15,0.0267 -7.80215,2.23455 c -11.05629,3.16655 -21.42333,8.34443 -30.69491,15.33078 -9.58674,7.22382 -9.55262,7.01918 -1.94688,11.67449 45.07219,27.58774 72.77282,47.57166 124.94394,90.13768 15.71324,12.82031 15.37993,12.72007 18.53958,5.57552 z m 48.79604,-10.07988 -2.57346,-2.57346 0.57306,-3.17654 c 2.25369,-12.4923 2.653,-16.35923 2.65143,-25.67653 -0.004,-26.45802 -7.80555,-45.96979 -26.23665,-65.62188 L 807,234.04847 v -2.30173 c 0,-1.26595 0.70052,-3.30186 1.5567,-4.52423 L 810.11341,225 h 3.3535 3.35349 l 5.10713,4.03695 c 14.37685,11.36424 27.7641,34.38141 32.78594,56.36997 l 1.61994,7.09308 0.0386,15.5 0.0386,15.5 -1.68588,7.41488 c -2.61509,11.50169 -7.75071,15.15005 -13.38911,9.51165 z"
         id="path3269" />
      <path
         style="fill:#169437"
         d="m 316.45042,825.64789 c -13.22643,-5.99739 -12.41549,-11.926 6.42984,-47.00675 14.10196,-26.25093 13.95077,-23.83049 2.0677,-33.10196 -122.78528,-95.80021 -134.511,-296.8413 -23.72579,-406.78584 l 13.85177,-13.74666 -1.05989,-1.98042 c -0.58294,-1.08923 -1.92261,-2.44214 -2.97706,-3.00646 l -1.91717,-1.02604 -13.80991,10.81166 C 287.71446,335.75184 272.275,348.33914 261,357.7772 c -21.07635,17.64256 -23.64086,19.15649 -29.29118,17.29172 l -3.2981,-1.08847 -3.4107,-5.62765 c -34.6767,-57.21628 1.42054,-136.37757 70.72263,-155.09481 l 9.77735,-2.64069 17,-0.0419 17,-0.0419 8.5,2.35977 c 21.11229,5.8612 43.54547,20.50385 52.17001,34.05258 4.88103,7.66786 3.5187,10.93409 -6.95687,16.67934 -22.47075,12.32391 -62.64327,37.80159 -66.62761,42.25566 l -1.91447,2.14018 2.33878,2.48952 c 3.06624,3.26386 1.9123,3.68288 16.47955,-5.98409 24.32826,-16.14449 46.59047,-25.99597 76.93377,-34.04475 16.41976,-4.35546 16.12658,-3.95398 8.89466,-12.18022 C 426.02919,254.56064 419.06785,246.1 413.84817,239.5 c -10.63333,-13.44526 -17.1839,-19.7629 -27.12423,-26.15974 -10.08297,-6.48863 -11.53552,-12.28609 -3.98478,-15.90417 l 3.76084,-1.80207 14,-0.42457 14,-0.42456 9.31421,1.61856 c 17.08398,2.96873 32.23495,9.41272 44.96534,19.12457 8.09528,6.17578 9.62208,6.19367 8.95622,0.10495 C 473.83156,179.93204 501.81776,113 520.64955,113 c 6.20282,0 31.15414,10.09113 43.50975,17.59677 l 6.05214,3.67648 1.29091,3.07017 1.29091,3.07016 -0.95324,2.50721 c -0.52429,1.37897 -5.11068,6.79841 -10.192,12.04321 -18.41823,19.0108 -29.46351,38.30106 -34.63847,60.49506 -3.52975,15.13811 -3.0774,15.43119 8.3076,5.38248 17.20598,-15.18647 34.48876,-23.7889 55.07044,-27.41109 20.23182,-3.56062 48.71815,0.22272 53.20196,7.06588 l 1.69415,2.5856 -1.13941,2.50072 c -0.62667,1.3754 -3.89607,4.16947 -7.26533,6.20904 -10.13497,6.13518 -19.88058,14.30873 -29.26468,24.54401 -4.88715,5.33043 -13.34156,13.57229 -18.78759,18.31523 -12.08684,10.52644 -12.17299,10.23385 3.97216,13.49057 34.27455,6.91371 61.3198,18.11264 90.38835,37.42811 14.36816,9.54735 13.65032,9.2967 16.85502,5.88545 l 2.39085,-2.54495 -1.05643,-1.70505 c -1.60735,-2.59421 -39.25905,-27.67263 -54.97489,-36.61677 -18.38814,-10.46498 -19.15799,-11.04592 -20.34772,-15.35477 l -1.01617,-3.68028 2.05253,-4.23996 c 2.65696,-5.48855 15.70953,-17.68297 24.51299,-22.90137 67.1508,-39.80478 157.25718,6.99968 162.84615,84.58809 1.76578,24.51331 -9.11092,60.69755 -19.78786,65.82961 l -2.76617,1.32961 -3.02699,-1.05521 c -1.66484,-0.58037 -9.61872,-6.57869 -17.6753,-13.32961 -46.19046,-38.70478 -53.64183,-43.84911 -57.24965,-39.5244 -2.96726,3.55688 -2.35536,5.15717 4.30644,11.26252 115.23457,105.60912 104.10285,320.68601 -21.42219,413.89996 -3.4803,2.58444 -7.10553,5.33613 -8.05609,6.11486 l -1.72827,1.41589 0.75815,1.77838 c 0.41698,0.97812 6.52479,13.25339 13.5729,27.27839 l 12.81475,25.5 -0.50458,3.7881 c -0.90411,6.78756 -6.09717,11.93362 -13.44362,13.32196 l -3.25895,0.61588 -5.37971,-2.63204 -5.3797,-2.63205 -20.65723,-20.48092 C 654.20399,790.21642 644.4689,781 643.93192,781 c -0.53697,0 -4.45383,1.74399 -8.70412,3.87553 -74.16336,37.1933 -195.24742,35.50555 -254.85733,-3.55236 -1.33809,-0.87675 -2.75634,-1.27062 -3.15168,-0.87528 -42.99994,43.00092 -51.56625,49.37261 -60.76837,45.2 z m 221.33899,-29.6959 C 669.97568,781.6859 768.0452,686.05668 781.64404,558.16529 l 1.55938,-14.66529 -0.52938,-21 C 780.00781,416.73341 716.90853,324.8604 626,294.3815 c -14.34758,-4.81032 -15.06316,-4.51005 -8.02116,3.36577 23.08969,25.82368 23.56312,43.53338 0.91901,34.378 -13.12636,-5.30719 -21.86426,-6.95631 -53.89785,-10.1722 -12.90392,-1.29544 -26.81243,-4.6099 -37.79002,-9.00554 -9.31961,-3.73176 -7.66213,-4.0336 -19.84501,3.61398 -18.63395,11.69713 -31.76425,16.63332 -58.22171,21.88781 -19.37813,3.84853 -33.77894,8.31174 -44.8683,13.90591 -35.05366,17.6833 -9.35178,-36.30878 29.78695,-62.57359 11.80335,-7.92087 10.85364,-8.39807 -7.48655,-3.76178 -217.50137,54.98291 -253.90708,354.92098 -57.16601,470.97724 52.31804,30.86207 113.09091,44.92193 168.38006,38.95489 z M 484.1772,727.36568 C 391.92133,713.13489 324.45902,641.33846 316.8342,549.2717 l -1.17837,-14.22831 1.19977,-13.55175 C 322.31094,459.87225 352.4804,409.74391 404.64557,375.62346 520.0946,300.10999 676.24347,363.83007 704.53465,498 l 2.63577,12.5 0.54325,19.21033 C 711.10667,649.6909 602.60175,745.63308 484.1772,727.36568 Z M 504,702.46788 c 0,-11.01855 1.56361,-15.97127 5.51673,-17.47424 3.87244,-1.4723 5.0197,-1.25459 8.40654,1.59525 L 521,689.17779 v 10.85209 c 0,12.83834 -0.68893,12.16326 11.09988,10.87681 C 608.14921,702.60785 669.23385,648.1024 686.65286,573 c 3.18291,-13.7232 4.56488,-22.24536 4.16807,-25.70326 L 690.5,544.5 l -10.88466,-0.55589 -10.88465,-0.55588 -2.36535,-2.74988 C 663.47376,537.27668 663.33679,533.66321 666,531 l 2,-2 10.25,-0.0153 c 5.6375,-0.008 10.88216,-0.41553 11.65479,-0.90469 l 1.4048,-0.88937 -0.65154,-7.70765 C 683.72342,437.44645 604.08902,361.1489 525.25,361.0059 L 522,361 l -0.15401,4.75 c -0.0847,2.6125 -0.20944,7.61198 -0.27718,11.10996 l -0.12317,6.35996 -2.77858,2.39004 c -4.39362,3.77923 -10.52246,2.50414 -13.24206,-2.75499 L 504,380.09932 V 370.54966 361 l -3.75,0.006 c -78.42634,0.12328 -155.50449,72.41441 -166.25332,155.92798 l -1.21421,9.43389 1.79989,1.31611 1.7999,1.31612 H 346.69113 357 l 2,2 c 2.68038,2.68038 2.64213,8.1089 -0.0745,10.56738 l -2.07446,1.87736 -11.67554,0.52763 L 333.5,544.5 l 0.26213,6 c 3.55434,81.35697 83.63264,158.75417 166.98787,161.39696 L 504,712 Z m -1.98662,-147.65486 c -2.56775,-1.32377 -5.75571,-4.1395 -7.45392,-6.58359 l -2.96729,-4.27058 -0.41432,-6.50664 -0.41431,-6.50664 -15.13177,-14.33279 C 467.3093,508.72974 454.2,496.5249 446.5,489.49091 427.39752,472.04069 424.55758,463 438.17845,463 h 3.86847 l 8.22654,7.79348 c 4.5246,4.28641 9.80154,9.05844 11.72654,10.60451 1.925,1.54607 11.15,10.10348 20.5,19.01647 20.38311,19.43043 18.18883,18.02258 25.00265,16.04175 3.60964,-1.04935 6.97618,-1.38216 9.56205,-0.94528 l 3.99101,0.67428 38.72214,-38.39297 c 21.29718,-21.11613 43.95751,-43.4328 50.35629,-49.5926 L 621.76827,417 h 2.68161 c 3.75475,0 6.27619,1.5696 8.05867,5.01653 l 1.52925,2.95724 -1.36506,3.26706 c -0.83111,1.9891 -20.54717,22.23692 -50.40371,51.76311 L 533.23038,528.5 l -0.37669,7.59292 -0.37669,7.59292 -2.76737,3.62821 c -1.52205,1.99551 -4.39222,4.86754 -6.37815,6.38228 l -3.61077,2.75407 -6.61036,0.33782 -6.61035,0.33781 z M 252.10363,345.34555 c 50.50486,-41.22659 79.43142,-62.22704 118.14637,-85.77333 7.0125,-4.26497 12.75,-8.28683 12.75,-8.93747 0,-4.25881 -22.8503,-17.7698 -37.71816,-22.3021 L 336.5,225.65561 h -15 -15 l -9,2.71037 C 263.95399,238.46844 238.291,263.92275 229.81559,295.5 l -2.14721,8 -0.0592,14 -0.0592,14 2.30006,8.5 c 5.45411,20.15601 4.41553,19.90653 22.25354,5.34555 z m 540.43595,5.16086 c 3.69456,-8.35404 6.45613,-20.01506 7.10614,-30.00641 l 0.58552,-9 -1.63959,-9.38937 C 792.45468,266.96643 764.80487,237.86795 728,227.82045 l -8.5,-2.32045 -15,0.0267 -15,0.0267 -7.80215,2.23455 c -11.05629,3.16655 -21.42333,8.34443 -30.69491,15.33078 -9.58674,7.22382 -9.55262,7.01918 -1.94688,11.67449 45.07219,27.58774 72.77282,47.57166 124.94394,90.13768 15.71324,12.82031 15.37993,12.72007 18.53958,5.57552 z m 48.79604,-10.07988 -2.57346,-2.57346 0.57306,-3.17654 c 2.25369,-12.4923 2.653,-16.35923 2.65143,-25.67653 -0.004,-26.45802 -7.80555,-45.96979 -26.23665,-65.62188 L 807,234.04847 v -2.30173 c 0,-1.26595 0.70052,-3.30186 1.5567,-4.52423 L 810.11341,225 h 3.3535 3.35349 l 5.10713,4.03695 c 14.37685,11.36424 27.7641,34.38141 32.78594,56.36997 l 1.61994,7.09308 0.0386,15.5 0.0386,15.5 -1.68588,7.41488 c -2.61509,11.50169 -7.75071,15.15005 -13.38911,9.51165 z"
         id="path3268" />
      <path
         style="fill:#050703"
         d="m 316.45042,825.64789 c -13.22643,-5.99739 -12.41549,-11.926 6.42984,-47.00675 14.10196,-26.25093 13.95077,-23.83049 2.0677,-33.10196 -122.78528,-95.80021 -134.511,-296.8413 -23.72579,-406.78584 l 13.85177,-13.74666 -1.05989,-1.98042 c -0.58294,-1.08923 -1.92261,-2.44214 -2.97706,-3.00646 l -1.91717,-1.02604 -13.80991,10.81166 C 287.71446,335.75184 272.275,348.33914 261,357.7772 c -21.07635,17.64256 -23.64086,19.15649 -29.29118,17.29172 l -3.2981,-1.08847 -3.4107,-5.62765 c -34.6767,-57.21628 1.42054,-136.37757 70.72263,-155.09481 l 9.77735,-2.64069 17,-0.0419 17,-0.0419 8.5,2.35977 c 21.11229,5.8612 43.54547,20.50385 52.17001,34.05258 4.88103,7.66786 3.5187,10.93409 -6.95687,16.67934 -22.47075,12.32391 -62.64327,37.80159 -66.62761,42.25566 l -1.91447,2.14018 2.33878,2.48952 c 3.06624,3.26386 1.9123,3.68288 16.47955,-5.98409 24.32826,-16.14449 46.59047,-25.99597 76.93377,-34.04475 16.41976,-4.35546 16.12658,-3.95398 8.89466,-12.18022 C 426.02919,254.56064 419.06785,246.1 413.84817,239.5 c -10.63333,-13.44526 -17.1839,-19.7629 -27.12423,-26.15974 -10.08297,-6.48863 -11.53552,-12.28609 -3.98478,-15.90417 l 3.76084,-1.80207 14,-0.42457 14,-0.42456 9.31421,1.61856 c 17.08398,2.96873 32.23495,9.41272 44.96534,19.12457 8.09528,6.17578 9.62208,6.19367 8.95622,0.10495 C 473.83156,179.93204 501.81776,113 520.64955,113 c 6.20282,0 31.15414,10.09113 43.50975,17.59677 l 6.05214,3.67648 1.29091,3.07017 1.29091,3.07016 -0.95324,2.50721 c -0.52429,1.37897 -5.11068,6.79841 -10.192,12.04321 -18.41823,19.0108 -29.46351,38.30106 -34.63847,60.49506 -3.52975,15.13811 -3.0774,15.43119 8.3076,5.38248 17.20598,-15.18647 34.48876,-23.7889 55.07044,-27.41109 20.23182,-3.56062 48.71815,0.22272 53.20196,7.06588 l 1.69415,2.5856 -1.13941,2.50072 c -0.62667,1.3754 -3.89607,4.16947 -7.26533,6.20904 -10.13497,6.13518 -19.88058,14.30873 -29.26468,24.54401 -4.88715,5.33043 -13.34156,13.57229 -18.78759,18.31523 -12.08684,10.52644 -12.17299,10.23385 3.97216,13.49057 34.27455,6.91371 61.3198,18.11264 90.38835,37.42811 14.36816,9.54735 13.65032,9.2967 16.85502,5.88545 l 2.39085,-2.54495 -1.05643,-1.70505 c -1.60735,-2.59421 -39.25905,-27.67263 -54.97489,-36.61677 -18.38814,-10.46498 -19.15799,-11.04592 -20.34772,-15.35477 l -1.01617,-3.68028 2.05253,-4.23996 c 2.65696,-5.48855 15.70953,-17.68297 24.51299,-22.90137 67.1508,-39.80478 157.25718,6.99968 162.84615,84.58809 1.76578,24.51331 -9.11092,60.69755 -19.78786,65.82961 l -2.76617,1.32961 -3.02699,-1.05521 c -1.66484,-0.58037 -9.61872,-6.57869 -17.6753,-13.32961 -46.19046,-38.70478 -53.64183,-43.84911 -57.24965,-39.5244 -2.96726,3.55688 -2.35536,5.15717 4.30644,11.26252 115.23457,105.60912 104.10285,320.68601 -21.42219,413.89996 -3.4803,2.58444 -7.10553,5.33613 -8.05609,6.11486 l -1.72827,1.41589 0.75815,1.77838 c 0.41698,0.97812 6.52479,13.25339 13.5729,27.27839 l 12.81475,25.5 -0.50458,3.7881 c -0.90411,6.78756 -6.09717,11.93362 -13.44362,13.32196 l -3.25895,0.61588 -5.37971,-2.63204 -5.3797,-2.63205 -20.65723,-20.48092 C 654.20399,790.21642 644.4689,781 643.93192,781 c -0.53697,0 -4.45383,1.74399 -8.70412,3.87553 -74.16336,37.1933 -195.24742,35.50555 -254.85733,-3.55236 -1.33809,-0.87675 -2.75634,-1.27062 -3.15168,-0.87528 -42.99994,43.00092 -51.56625,49.37261 -60.76837,45.2 z m 221.33899,-29.6959 C 669.97568,781.6859 768.0452,686.05668 781.64404,558.16529 l 1.55938,-14.66529 -0.52938,-21 C 780.00781,416.73341 716.90853,324.8604 626,294.3815 c -14.34758,-4.81032 -15.06316,-4.51005 -8.02116,3.36577 23.08969,25.82368 23.56312,43.53338 0.91901,34.378 -13.12636,-5.30719 -21.86426,-6.95631 -53.89785,-10.1722 -12.90392,-1.29544 -26.81243,-4.6099 -37.79002,-9.00554 -9.31961,-3.73176 -7.66213,-4.0336 -19.84501,3.61398 -18.63395,11.69713 -31.76425,16.63332 -58.22171,21.88781 -19.37813,3.84853 -33.77894,8.31174 -44.8683,13.90591 -35.05366,17.6833 -9.35178,-36.30878 29.78695,-62.57359 11.80335,-7.92087 10.85364,-8.39807 -7.48655,-3.76178 -217.50137,54.98291 -253.90708,354.92098 -57.16601,470.97724 52.31804,30.86207 113.09091,44.92193 168.38006,38.95489 z M 484.1772,727.36568 C 391.92133,713.13489 324.45902,641.33846 316.8342,549.2717 l -1.17837,-14.22831 1.19977,-13.55175 C 322.31094,459.87225 352.4804,409.74391 404.64557,375.62346 520.0946,300.10999 676.24347,363.83007 704.53465,498 l 2.63577,12.5 0.54325,19.21033 C 711.10667,649.6909 602.60175,745.63308 484.1772,727.36568 Z M 504,702.46788 c 0,-11.01855 1.56361,-15.97127 5.51673,-17.47424 3.87244,-1.4723 5.0197,-1.25459 8.40654,1.59525 L 521,689.17779 v 10.85209 c 0,12.83834 -0.68893,12.16326 11.09988,10.87681 C 608.14921,702.60785 669.23385,648.1024 686.65286,573 c 3.18291,-13.7232 4.56488,-22.24536 4.16807,-25.70326 L 690.5,544.5 l -10.88466,-0.55589 -10.88465,-0.55588 -2.36535,-2.74988 C 663.47376,537.27668 663.33679,533.66321 666,531 l 2,-2 10.25,-0.0153 c 5.6375,-0.008 10.88216,-0.41553 11.65479,-0.90469 l 1.4048,-0.88937 -0.65154,-7.70765 C 683.72342,437.44645 604.08902,361.1489 525.25,361.0059 L 522,361 l -0.15401,4.75 c -0.0847,2.6125 -0.20944,7.61198 -0.27718,11.10996 l -0.12317,6.35996 -2.77858,2.39004 c -4.39362,3.77923 -10.52246,2.50414 -13.24206,-2.75499 L 504,380.09932 V 370.54966 361 l -3.75,0.006 c -78.42634,0.12328 -155.50449,72.41441 -166.25332,155.92798 l -1.21421,9.43389 1.79989,1.31611 1.7999,1.31612 H 346.69113 357 l 2,2 c 2.68038,2.68038 2.64213,8.1089 -0.0745,10.56738 l -2.07446,1.87736 -11.67554,0.52763 L 333.5,544.5 l 0.26213,6 c 3.55434,81.35697 83.63264,158.75417 166.98787,161.39696 L 504,712 Z m -1.98662,-147.65486 c -2.56775,-1.32377 -5.75571,-4.1395 -7.45392,-6.58359 l -2.96729,-4.27058 -0.41432,-6.50664 -0.41431,-6.50664 -15.13177,-14.33279 C 467.3093,508.72974 454.2,496.5249 446.5,489.49091 427.39752,472.04069 424.55758,463 438.17845,463 h 3.86847 l 8.22654,7.79348 c 4.5246,4.28641 9.80154,9.05844 11.72654,10.60451 1.925,1.54607 11.15,10.10348 20.5,19.01647 20.38311,19.43043 18.18883,18.02258 25.00265,16.04175 3.60964,-1.04935 6.97618,-1.38216 9.56205,-0.94528 l 3.99101,0.67428 38.72214,-38.39297 c 21.29718,-21.11613 43.95751,-43.4328 50.35629,-49.5926 L 621.76827,417 h 2.68161 c 3.75475,0 6.27619,1.5696 8.05867,5.01653 l 1.52925,2.95724 -1.36506,3.26706 c -0.83111,1.9891 -20.54717,22.23692 -50.40371,51.76311 L 533.23038,528.5 l -0.37669,7.59292 -0.37669,7.59292 -2.76737,3.62821 c -1.52205,1.99551 -4.39222,4.86754 -6.37815,6.38228 l -3.61077,2.75407 -6.61036,0.33782 -6.61035,0.33781 z M 252.10363,345.34555 c 50.50486,-41.22659 79.43142,-62.22704 118.14637,-85.77333 7.0125,-4.26497 12.75,-8.28683 12.75,-8.93747 0,-4.25881 -22.8503,-17.7698 -37.71816,-22.3021 L 336.5,225.65561 h -15 -15 l -9,2.71037 C 263.95399,238.46844 238.291,263.92275 229.81559,295.5 l -2.14721,8 -0.0592,14 -0.0592,14 2.30006,8.5 c 5.45411,20.15601 4.41553,19.90653 22.25354,5.34555 z m 540.43595,5.16086 c 3.69456,-8.35404 6.45613,-20.01506 7.10614,-30.00641 l 0.58552,-9 -1.63959,-9.38937 C 792.45468,266.96643 764.80487,237.86795 728,227.82045 l -8.5,-2.32045 -15,0.0267 -15,0.0267 -7.80215,2.23455 c -11.05629,3.16655 -21.42333,8.34443 -30.69491,15.33078 -9.58674,7.22382 -9.55262,7.01918 -1.94688,11.67449 45.07219,27.58774 72.77282,47.57166 124.94394,90.13768 15.71324,12.82031 15.37993,12.72007 18.53958,5.57552 z M 427.16087,327.56056 c 5.13652,-1.3417 14.06413,-3.40046 19.83913,-4.57502 22.87316,-4.65213 44.88052,-13.8902 60.48335,-25.38922 10.54013,-7.7679 9.91101,-7.68763 20.68404,-2.63922 13.10876,6.14297 23.97469,8.70935 53.21288,12.56812 29.6047,3.90714 28.53408,3.9069 25.4654,0.006 -10.58669,-13.45878 -31.09982,-23.25534 -57.70435,-27.55815 -8.34702,-1.34998 -11.44443,-3.54052 -10.9519,-7.74534 l 0.31058,-2.65142 8.33796,-4.23227 C 561.41729,257.9434 611.29763,214.92092 611.87314,209.25 L 612,208 h -7.04216 c -29.89261,0 -60.94138,19.35391 -79.55817,49.59171 -3.58169,5.81747 -7.16072,10.43082 -8.6687,11.17389 l -2.56838,1.2656 -2.55237,-1.16293 c -1.53599,-0.69985 -3.01758,-2.57254 -3.72063,-4.70281 l -1.16826,-3.53988 0.54497,-17.06279 c 1.18066,-36.9658 13.29241,-67.74771 37.51203,-95.33651 3.02916,-3.45055 5.33074,-6.43529 5.11462,-6.63277 -1.23091,-1.12474 -15.34002,-7.6768 -20.75638,-9.63896 l -6.36343,-2.30525 -1.90982,2.42535 c -13.32056,16.91626 -22.53766,39.06774 -25.46795,61.20715 l -1.61715,12.2182 0.61136,11.181 c 0.85003,15.54604 2.24901,24.6928 6.14043,40.147 l 3.35603,13.328 -1.05329,2.31173 c -1.40351,3.08037 -5.16881,4.7352 -8.17424,3.59253 l -2.34942,-0.89324 -3.78977,-8.83351 c -12.14768,-28.31484 -33.13995,-45.90841 -64.16366,-53.77542 -12.97173,-3.28938 -14.16589,-2.4493 -7.54254,5.30612 2.64721,3.09969 8.38471,10.35402 12.75,16.12075 15.19607,20.07467 25.56211,29.62338 40.66354,37.45738 15.67446,8.13126 15.13699,12.48665 -2.22666,18.0437 -13.66442,4.37316 -30.42116,15.8503 -43.84221,30.02872 -11.11643,11.74374 -11.11978,11.73478 3.00308,8.0458 z m 414.17475,12.86597 -2.57346,-2.57346 0.57306,-3.17654 c 2.25369,-12.4923 2.653,-16.35923 2.65143,-25.67653 -0.004,-26.45802 -7.80555,-45.96979 -26.23665,-65.62188 L 807,234.04847 v -2.30173 c 0,-1.26595 0.70052,-3.30186 1.5567,-4.52423 L 810.11341,225 h 3.3535 3.35349 l 5.10713,4.03695 c 14.37685,11.36424 27.7641,34.38141 32.78594,56.36997 l 1.61994,7.09308 0.0386,15.5 0.0386,15.5 -1.68588,7.41488 c -2.61509,11.50169 -7.75071,15.15005 -13.38911,9.51165 z"
         id="path3267" />
    </g>
  </g>
</svg>
